<?xml version="1.0" encoding="UTF-8"?>
<!DOCTYPE svg PUBLIC "-//W3C//DTD SVG 1.1//EN" "http://www.w3.org/Graphics/SVG/1.1/DTD/svg11.dtd">
<!-- Creator: CorelDRAW X7 -->
<svg xmlns="http://www.w3.org/2000/svg" xml:space="preserve" width="2480px" height="3508px" version="1.1" style="shape-rendering:geometricPrecision; text-rendering:geometricPrecision; image-rendering:optimizeQuality; fill-rule:evenodd; clip-rule:evenodd"
viewBox="0 0 2480 3507"
 xmlns:xlink="http://www.w3.org/1999/xlink">
 <defs>
  <style type="text/css">
   <![CDATA[
    .str1 {stroke:#2B2A29;stroke-width:27.678}
    .str2 {stroke:#2B2A29;stroke-width:27.6792}
    .str0 {stroke:black;stroke-width:27.6792;stroke-linecap:round}
    .fil1 {fill:none}
    .fil0 {fill:#EFEFEF}
    .fil2 {fill:#2B2A29;fill-rule:nonzero}
   ]]>
  </style>
 </defs>
 <g id="Layer_x0020_1">
  <metadata id="CorelCorpID_0Corel-Layer"/>
  <g id="_625517841888">
   <polygon class="fil0 str0" points="813,1362 700,1432 594,1502 490,1590 402,1685 322,1800 262,1921 226,2019 200,2115 183,2221 173,2326 173,2404 192,2483 200,2562 226,2640 251,2711 288,2781 322,2851 366,2913 419,2974 473,3036 524,3089 585,3140 656,3185 717,3230 787,3264 866,3289 945,3317 1024,3334 1102,3351 1192,3359 1234,3359 1251,3359 1341,3359 1428,3342 1515,3334 1594,3308 1672,3281 1751,3247 1821,3202 1891,3159 1962,3106 2023,3053 2077,2991 2130,2921 2172,2862 2217,2791 2251,2711 2279,2632 2296,2581 2313,2519 2321,2449 2330,2387 2330,2343 2330,2326 2321,2238 2313,2160 2296,2072 2279,1992 2242,1921 2200,1826 2147,1747 2085,1660 2015,1590 1945,1519 1874,1458 1804,1405 1717,1362 1619,1309 1585,1264 1551,1143 970,1143 945,1264 911,1309 "/>
   <polygon class="fil0 str0" points="1585,345 1540,1143 981,1143 919,345 "/>
   <line class="fil1 str0" x1="945" y1="318" x2="1560" y2= "318" />
   <polygon class="fil0 str0" points="1619,213 1630,213 1638,213 1638,213 1647,222 1655,222 1664,230 1672,239 1672,247 1681,256 1681,256 1681,264 1681,284 1681,292 1681,292 1672,301 1672,309 1664,318 1655,326 1647,326 1638,335 1638,335 1630,335 1619,335 911,335 902,335 892,335 892,335 883,326 875,326 866,318 858,309 858,301 849,292 849,292 849,284 849,264 849,256 849,256 858,247 858,239 866,230 875,222 883,222 892,213 892,213 902,213 "/>
  </g>
  <path class="fil2 str1" d="M319 2450c1,5 4,14 8,27 5,12 10,26 17,41 6,15 14,31 21,47 8,17 15,32 22,46 7,15 13,27 19,38 5,11 9,18 11,21 2,4 6,10 10,18 4,8 8,15 12,21 22,-43 47,-82 72,-120 26,-38 55,-71 88,-102 5,-4 12,-10 21,-18 8,-7 18,-14 27,-19 10,-6 20,-9 30,-10 9,-1 18,2 25,10 0,0 2,2 5,6 2,4 5,8 8,14 2,6 4,13 5,20 1,7 0,14 -3,21 -4,3 -7,6 -10,9 -4,3 -7,6 -10,9 -21,19 -41,41 -58,64 -18,24 -35,48 -51,75 -16,26 -30,54 -43,82 -14,29 -27,58 -39,87l135 237c4,6 6,13 5,21 0,8 -3,14 -7,17l-11 10c-11,11 -23,13 -36,8 -13,-5 -26,-15 -39,-30 -12,-12 -23,-26 -34,-43 -11,-16 -22,-32 -32,-48 -10,-16 -19,-31 -27,-44 -9,-14 -16,-23 -21,-29 -8,-2 -17,-4 -26,-6 -8,-3 -17,-8 -25,-16 -12,-13 -18,-27 -18,-41 0,-14 2,-30 6,-48 1,-2 0,-5 -1,-9 0,-3 -2,-7 -3,-11 -2,-4 -4,-8 -6,-11 -2,-4 -4,-7 -5,-10l-43 -83c-16,-32 -31,-61 -43,-86 -13,-24 -24,-47 -33,-67 -10,-19 -18,-37 -25,-54 -8,-16 -15,-31 -22,-46 -2,-5 -5,-13 -9,-23 -4,-9 -7,-19 -9,-30 -2,-11 -4,-21 -3,-30 0,-10 3,-18 9,-23 14,-13 24,-20 31,-22 7,-3 13,-3 18,0l13 6c4,-5 10,-13 17,-23 7,-9 15,-20 22,-30 7,-11 14,-21 21,-30 6,-10 10,-17 13,-21 15,-24 29,-45 42,-65 13,-19 26,-37 38,-53 13,-16 25,-31 38,-45 13,-14 26,-28 40,-40 7,-7 13,-12 19,-16 6,-5 12,-8 18,-10 5,-2 11,-3 16,-2 5,1 10,4 15,9 2,2 5,6 7,11 3,6 5,11 6,18 1,6 1,14 -1,21 -1,8 -4,16 -10,24 -1,3 -4,7 -8,13 -5,6 -10,13 -16,21 -6,7 -12,15 -19,24 -6,9 -13,17 -19,25 -9,13 -19,28 -30,44 -11,16 -23,33 -34,51 -12,18 -24,36 -35,55 -11,19 -22,37 -31,54 -9,18 -17,34 -24,49 -6,15 -9,28 -11,40z"/>
  <path class="fil2 str2" d="M1867 2742c-8,-4 -17,-7 -28,-9 -11,-1 -23,-2 -35,-2 -12,0 -23,0 -35,1 -11,1 -21,1 -28,0l-158 174c-6,7 -14,10 -23,11 -10,0 -18,-2 -24,-5 -20,-11 -32,-22 -35,-34 -3,-12 -1,-24 6,-37 3,-6 6,-12 10,-17 4,-5 9,-10 14,-16l7 -8c8,-9 17,-20 29,-33 12,-13 25,-27 38,-42 14,-14 28,-29 41,-44 14,-15 27,-28 39,-41 12,-12 29,-29 52,-53 22,-24 48,-50 76,-79 28,-30 58,-60 89,-93 30,-32 59,-62 87,-91 28,-30 52,-56 74,-78 22,-23 37,-39 47,-51 6,-3 14,-4 22,-4 9,0 18,3 28,8 7,4 13,8 20,14 6,5 11,11 15,18 4,6 6,13 7,21 1,7 -1,14 -5,21 -2,5 -6,10 -12,16 -57,53 -115,108 -174,165 -58,58 -116,118 -171,179 6,0 18,-1 36,-4 18,-2 38,-5 61,-9 22,-4 45,-8 68,-13 23,-5 43,-10 59,-15 12,-4 23,-7 35,-11 12,-4 23,-8 34,-12 11,-3 20,-6 29,-9 8,-3 14,-6 19,-8 12,-4 23,-7 34,-8 11,0 21,1 30,6 8,4 15,9 20,16 5,6 9,12 12,19 3,6 4,12 4,19 0,6 -1,12 -3,16 -3,6 -8,11 -14,16 -6,5 -12,9 -19,14 -7,3 -13,7 -20,10 -7,3 -12,5 -17,6 -15,3 -31,7 -49,11 -19,4 -37,7 -57,11 -20,4 -40,7 -60,11 -20,3 -39,6 -58,9 16,26 26,53 30,83 3,30 2,60 -3,91 -5,32 -14,63 -26,94 -12,31 -26,61 -41,89 -1,2 -3,5 -6,10 -3,4 -6,8 -9,12 -5,5 -11,10 -16,15 -6,4 -12,7 -18,8 -7,2 -13,2 -21,1 -7,-1 -15,-4 -24,-8 -9,-5 -15,-10 -20,-17 -4,-6 -7,-12 -8,-19 -1,-7 -1,-14 0,-21 1,-7 4,-13 7,-19 10,-19 19,-38 29,-59 9,-20 17,-41 24,-61 6,-20 11,-40 14,-60 3,-20 3,-38 0,-55 -2,-12 -5,-22 -8,-30 -3,-8 -9,-14 -17,-18l-4 -2z"/>
  <path class="fil2 str2" d="M650 2210c-5,-53 -10,-105 -15,-154 -5,-49 -10,-95 -15,-136 -5,-42 -11,-78 -17,-109 -6,-31 -12,-55 -19,-72 -2,-18 -1,-34 6,-48 6,-14 16,-24 29,-30 8,-3 16,-4 24,-3 7,1 14,4 20,9 6,4 12,10 17,17 5,7 9,14 13,22 2,6 4,11 5,16 2,6 3,10 4,15 6,35 10,71 14,110 3,38 7,76 10,116 4,39 7,78 11,117 4,39 8,77 14,114l6 39c3,20 6,38 9,56 4,17 8,31 12,41 2,5 5,9 9,12 3,2 8,2 13,-1 14,-6 30,-15 47,-28 16,-13 33,-27 50,-42 18,-15 34,-31 51,-48 16,-17 31,-32 45,-46 7,-8 13,-15 18,-20 6,-5 12,-12 20,-20 7,-8 18,-19 30,-32 13,-13 31,-32 54,-55 4,-4 7,-7 10,-10 3,-3 6,-5 9,-6 6,-2 11,-3 16,-3 5,0 9,2 12,4 4,3 7,6 10,10 3,4 6,8 8,12 3,8 5,15 6,21 2,6 3,11 3,16 -2,8 -4,16 -8,24 -5,8 -9,16 -15,23 -5,7 -11,13 -16,19 -6,5 -11,10 -15,13 -4,5 -10,10 -18,18 -7,7 -16,15 -24,24 -9,8 -18,17 -28,26 -9,10 -18,18 -26,26 -8,8 -16,15 -22,21 -7,7 -11,11 -14,13 -12,12 -26,25 -40,40 -15,14 -30,29 -45,42 -15,14 -30,27 -44,38 -14,11 -26,19 -37,23 -13,6 -23,9 -31,10 -9,1 -17,1 -24,0 -7,-1 -15,-2 -23,-5 -8,-2 -19,-5 -31,-7 -11,-1 -21,-6 -29,-14 -8,-8 -14,-17 -19,-28 -2,-6 -4,-12 -7,-19 -2,-8 -4,-16 -6,-24 -2,-9 -4,-17 -5,-25 -2,-9 -3,-16 -3,-23l-9 -99z"/>
  <path class="fil2 str2" d="M1403 1931c-6,2 -12,1 -17,0 -5,-2 -10,-4 -14,-7 -4,-4 -7,-8 -10,-13 -2,-4 -4,-9 -5,-14 -1,-5 -1,-11 0,-20 1,-8 3,-18 5,-28 2,-11 4,-22 7,-33 2,-12 5,-23 7,-34 2,-11 4,-20 6,-29 1,-9 2,-16 3,-21 0,-6 0,-13 1,-20 0,-8 1,-17 1,-26 1,-9 1,-19 2,-29 0,-10 1,-21 1,-31 -4,2 -9,4 -15,5 -6,2 -12,4 -19,6 -10,3 -19,6 -28,9 -10,4 -19,8 -29,12 -9,4 -19,8 -30,13 -10,4 -21,9 -33,14 -17,7 -34,15 -52,23 -17,8 -35,13 -54,17 -6,1 -12,0 -18,-2 -6,-2 -12,-3 -18,-4 -5,11 -8,22 -12,34 -3,12 -6,24 -9,37 -2,12 -4,24 -5,36 -2,12 -3,23 -4,33 -1,6 -1,13 0,22 0,9 1,18 2,27 0,9 1,17 1,26 1,8 1,15 1,20 0,4 -1,9 -3,14 -2,5 -4,9 -7,13 -4,5 -8,9 -12,12 -4,3 -9,5 -14,6 -8,1 -15,0 -21,-4 -7,-4 -12,-9 -16,-16 -5,-7 -9,-15 -11,-23 -3,-9 -5,-16 -6,-24 -4,-18 -5,-37 -4,-58 1,-20 3,-41 7,-63 4,-22 10,-44 16,-66 7,-22 14,-45 23,-68 6,-20 15,-43 25,-70 10,-26 22,-54 36,-83 13,-28 29,-57 45,-85 17,-28 35,-53 54,-77 20,-23 40,-42 62,-58 22,-17 45,-27 69,-31 25,-5 46,-4 64,2 19,6 34,16 47,30 13,13 23,29 30,49 8,20 14,41 18,64 4,20 6,41 8,63 1,21 2,43 2,64 -1,21 -1,41 -2,61 -1,20 -2,38 -2,53l-5 65c0,1 -1,5 -2,11 0,6 -1,13 -2,21 -1,8 -3,16 -4,26 -2,9 -3,19 -5,28 -2,9 -3,17 -5,25 -1,8 -3,14 -4,19l0 -1c0,9 -1,17 -2,25 -1,9 -3,17 -6,24 -3,7 -8,13 -13,19 -6,5 -14,8 -25,10zm-79 -567c-14,2 -27,8 -39,16 -12,8 -24,17 -35,29 -12,11 -22,24 -32,38 -10,14 -19,28 -28,43 -9,15 -17,29 -24,44 -7,14 -14,27 -20,40 -1,2 -2,4 -3,8 -2,3 -3,6 -4,10 -2,4 -3,8 -4,12 -1,4 -2,8 -3,11l47 -9c17,-3 36,-7 57,-14 21,-6 42,-13 62,-20 21,-7 40,-14 57,-20 17,-7 30,-12 38,-16 1,-4 1,-9 1,-16 0,-7 -1,-14 -1,-23 -1,-8 -2,-17 -3,-26 -1,-9 -3,-18 -4,-28 -2,-8 -4,-17 -6,-27 -3,-10 -6,-19 -11,-27 -4,-9 -10,-15 -18,-21 -7,-5 -16,-6 -27,-4z"/>
  <path class="fil2 str1" d="M1312 2194c9,9 18,20 26,31 9,11 18,22 28,34 9,11 20,21 31,32 12,10 25,19 40,28 18,9 37,16 57,22 20,5 41,9 63,10 21,1 43,0 65,-4 22,-3 43,-9 65,-17 23,-8 43,-17 59,-25 17,-8 31,-16 43,-23 12,-7 21,-14 27,-20 7,-6 12,-12 15,-17 4,-8 5,-17 3,-26 -3,-8 -7,-17 -14,-26 -7,-9 -16,-17 -27,-25 -10,-8 -22,-15 -34,-22 -8,-4 -17,-9 -27,-13 -10,-5 -20,-10 -31,-15 -10,-5 -20,-10 -30,-15 -10,-5 -18,-9 -25,-13 -11,-6 -21,-13 -31,-21 -10,-9 -19,-19 -27,-30 -8,-11 -14,-24 -19,-38 -4,-14 -5,-30 -4,-47 0,-6 1,-12 3,-19 2,-7 5,-14 8,-21 4,-8 9,-14 14,-21 5,-6 9,-12 15,-18 12,-13 29,-25 48,-36 19,-11 40,-20 64,-28 22,-8 46,-15 72,-20 24,-6 50,-10 75,-13 25,-4 49,-6 72,-7 23,-1 44,-1 63,0 26,1 52,5 76,12 25,7 48,17 69,28 13,7 24,15 34,25 10,9 17,20 22,31 6,11 8,23 9,35 0,12 -4,24 -10,36 -4,7 -8,13 -12,17 -4,4 -9,7 -13,8 -4,2 -8,3 -12,2 -3,0 -7,-1 -10,-3 -9,-4 -16,-10 -22,-16 -6,-5 -12,-11 -18,-17 -5,-6 -10,-12 -16,-18 -6,-5 -13,-10 -21,-15 -23,-12 -50,-21 -79,-25 -30,-3 -60,-4 -91,-2 -31,2 -62,7 -92,13 -31,7 -58,15 -84,23 -13,4 -24,10 -33,17 -9,6 -16,14 -20,22 -6,12 -6,24 0,36 7,12 18,22 33,30 8,5 18,10 29,15 11,6 22,11 34,17 12,6 23,11 34,16 11,6 21,11 29,15 20,11 37,24 52,39 16,16 27,33 36,51 8,18 12,38 12,59 -1,20 -6,41 -17,62 -7,13 -16,25 -27,36 -11,11 -23,21 -37,31 -14,10 -29,19 -44,27 -16,8 -32,16 -48,23 -30,13 -60,24 -92,33 -32,8 -64,13 -96,15 -32,2 -64,0 -95,-6 -31,-6 -61,-16 -89,-31 -13,-7 -24,-15 -36,-24 -12,-9 -22,-19 -33,-30 -10,-11 -18,-23 -26,-35 -8,-13 -13,-25 -17,-38 -4,-13 -6,-26 -5,-39 0,-12 4,-25 10,-36 3,-6 7,-11 12,-16 4,-4 10,-4 17,0z"/>
 </g>
</svg>
