<?xml version="1.0" encoding="UTF-8"?>
<!DOCTYPE svg PUBLIC "-//W3C//DTD SVG 1.1//EN" "http://www.w3.org/Graphics/SVG/1.1/DTD/svg11.dtd">
<!-- Creator: CorelDRAW X7 -->
<svg xmlns="http://www.w3.org/2000/svg" xml:space="preserve" width="209.903mm" height="296.686mm" version="1.1" style="shape-rendering:geometricPrecision; text-rendering:geometricPrecision; image-rendering:optimizeQuality; fill-rule:evenodd; clip-rule:evenodd"
viewBox="0 0 20990 29669"
 xmlns:xlink="http://www.w3.org/1999/xlink">
 <defs>
  <style type="text/css">
   <![CDATA[
    .str0 {stroke:black;stroke-width:33.87;stroke-linecap:round}
    .fil1 {fill:none}
    .fil0 {fill:black;fill-rule:nonzero}
   ]]>
  </style>
 </defs>
 <g id="Layer_x0020_1">
  <metadata id="CorelCorpID_0Corel-Layer"/>
  <g>
   <path class="fil0" d="M8820 8551l-14 -8 14 8zm-8325 -4806l0 -23 8302 4793 0 12 0 11 -8302 -4793zm8311 4798l-9 -5 9 5zm-9 -5l0 0 0 -11 0 11 0 -11 0 11 0 -11 0 11 0 -11 0 11 0 -11 0 11zm0 -23l32 18 -9 18 9 -18 -32 -18z"/>
  </g>
  <g>
   <path class="fil0" d="M8796 9224l0 -23 0 23zm0 0l-8264 -4772 0 -22 8264 4771 0 23z"/>
  </g>
  <g>
   <path class="fil0" d="M495 6622l8300 4792 0 23 -8300 -4792 0 -23zm0 832l0 -23 8299 4792 0 23 -8299 -4792zm8299 4792l0 -23 0 23zm1 -809l0 -23 0 23z"/>
  </g>
  <g>
   <path class="fil0" d="M495 9488l8297 4790 0 23 -8297 -4790 0 -23zm0 817l0 -23 8297 4790 0 23 -8297 -4790zm8297 4790l0 -23 0 23zm0 -794l0 -23 0 23z"/>
  </g>
  <g>
   <path class="fil0" d="M20495 10675l-7716 4455 0 -23 7716 -4455 0 23zm0 -817l0 23 -7706 4449 0 -23 7706 -4449zm-7706 4449l0 23 0 -23zm-10 800l0 23 0 -23z"/>
  </g>
  <g>
   <path class="fil0" d="M20495 7841l-7681 4434 1 -23 7680 -4434 0 23zm0 -832l0 23 -7670 4428 0 -23 7670 -4428zm-7670 4428l0 23 0 -23zm-10 815l-1 23 1 -23z"/>
  </g>
  <path class="fil1 str0" d="M8797 8527l3 -4030 4112 -7 -49 3932m-10 739l-28 2299m-10 792l-26 2078m-10 777l-7 544 185 1759 0 46 47 93 46 138 139 139 185 278 694 694 509 602 324 370 232 324 185 232 139 231 92 278 0 46 185 602 139 648 47 648 0 648 -47 648 -139 602 -92 277 -93 278 -231 555 -278 510 -370 416 -417 417 -463 324 -555 277 -278 93 -416 139 -417 92 -463 93 -509 46 -463 0 -509 -46 -463 -46 -463 -93 -416 -92 -232 -93 -555 -231 -463 -324 -463 -324 -370 -417 -324 -509 -278 -509 -139 -278 -139 -509 -138 -509 -47 -556 0 -555 0 -556 93 -555 92 -555 47 -278 92 -278 93 -231 139 -232 185 -324 231 -277 324 -417 463 -509 787 -833 185 -278 93 -139 92 -92 0 -93 0 -46 185 -1759 1 -579m0 -771l2 -2078m1 -786l1 -2116m0 0l0 -120m1 -663l0 -11"/>
  <path class="fil1" d="M12853 9161l7642 -4412m0 -733l-7632 4406"/>
  <path class="fil0" d="M12848 9152l7647 -4415 0 23 -7637 4409 -10 -17zm7647 -5148l0 23 -7627 4404 -10 -17 7637 -4410z"/>
  <path class="fil0" d="M11130 3683l0 -3499 20 0 0 3498 -20 1zm-635 -3499l20 0 0 3500 -20 0 0 -3500z"/>
 </g>
</svg>
