<?xml version="1.0" encoding="UTF-8"?>
<!DOCTYPE svg PUBLIC "-//W3C//DTD SVG 1.1//EN" "http://www.w3.org/Graphics/SVG/1.1/DTD/svg11.dtd">
<!-- Creator: CorelDRAW X7 -->
<svg xmlns="http://www.w3.org/2000/svg" xml:space="preserve" width="2480px" height="3508px" version="1.1" style="shape-rendering:geometricPrecision; text-rendering:geometricPrecision; image-rendering:optimizeQuality; fill-rule:evenodd; clip-rule:evenodd"
viewBox="0 0 2480 3507"
 xmlns:xlink="http://www.w3.org/1999/xlink">
 <defs>
  <style type="text/css">
   <![CDATA[
    .str1 {stroke:#2B2A29;stroke-width:27.678}
    .str2 {stroke:#2B2A29;stroke-width:27.6792}
    .str0 {stroke:black;stroke-width:27.6792;stroke-linecap:round}
    .fil1 {fill:none}
    .fil3 {fill:#FEFEFE;fill-rule:nonzero}
    .fil2 {fill:url(#id0)}
    .fil0 {fill:url(#id1)}
   ]]>
  </style>
  <linearGradient id="id0" gradientUnits="userSpaceOnUse" x1="1202.76" y1="117.874" x2="1340.79" y2="416.935">
   <stop offset="0" style="stop-opacity:1; stop-color:#0F0101"/>
   <stop offset="1" style="stop-opacity:1; stop-color:#633434"/>
  </linearGradient>
  <linearGradient id="id1" gradientUnits="userSpaceOnUse" x1="1305.87" y1="3179.25" x2="1232.99" y2="337.049">
   <stop offset="0" style="stop-opacity:1; stop-color:#116EB0"/>
   <stop offset="0.501961" style="stop-opacity:1; stop-color:#88B6D7"/>
   <stop offset="0.560784" style="stop-opacity:1; stop-color:#12C5D1"/>
   <stop offset="0.870588" style="stop-opacity:1; stop-color:white"/>
   <stop offset="1" style="stop-opacity:1; stop-color:white"/>
  </linearGradient>
 </defs>
 <g id="Layer_x0020_1">
  <metadata id="CorelCorpID_0Corel-Layer"/>
  <g id="_1095197340640">
   <polygon class="fil0 str0" points="855,1296 749,1362 648,1428 550,1511 467,1601 391,1710 335,1824 301,1917 276,2007 260,2108 250,2206 250,2281 268,2355 276,2429 301,2504 325,2570 359,2636 391,2703 433,2761 483,2819 534,2878 582,2928 640,2976 707,3018 765,3060 831,3093 906,3117 980,3143 1054,3159 1129,3175 1213,3183 1253,3183 1269,3183 1354,3183 1436,3167 1519,3159 1593,3135 1667,3109 1742,3077 1808,3034 1874,2994 1941,2944 1999,2894 2049,2835 2100,2769 2140,2713 2182,2646 2214,2570 2240,2496 2256,2447 2272,2389 2281,2323 2289,2264 2289,2222 2289,2206 2281,2124 2272,2049 2256,1967 2240,1891 2206,1824 2166,1734 2116,1659 2057,1577 1991,1511 1925,1444 1858,1386 1792,1336 1710,1296 1617,1245 1585,1203 1553,1089 1591,333 961,333 1004,1089 980,1203 948,1245 "/>
   <line class="fil1 str0" x1="969" y1="309" x2="1550" y2= "309" />
   <polygon class="fil2 str0" points="1606,210 1617,210 1625,210 1625,210 1633,218 1641,218 1649,226 1657,234 1657,242 1665,250 1665,250 1665,258 1665,276 1665,284 1665,284 1657,293 1657,301 1649,309 1641,317 1633,317 1625,325 1625,325 1617,325 1606,325 937,325 929,325 919,325 919,325 911,317 903,317 895,309 887,301 887,293 879,284 879,284 879,276 879,258 879,250 879,250 887,242 887,234 895,226 903,218 911,218 919,210 919,210 929,210 "/>
   <path class="fil3 str1" d="M382 2329c1,5 3,14 8,25 4,12 9,25 15,39 6,15 13,30 20,45 8,16 15,30 21,44 7,13 13,25 18,35 5,10 8,17 10,20 2,4 6,9 10,17 4,8 7,14 11,20 21,-40 44,-78 69,-113 24,-36 51,-68 82,-96 5,-5 12,-10 20,-17 8,-7 17,-13 26,-19 9,-5 18,-8 28,-9 9,-1 17,2 23,9 1,0 2,2 5,6 3,3 5,8 8,13 2,6 4,12 5,19 1,7 0,14 -4,20 -3,3 -6,6 -9,8 -3,3 -6,6 -9,9 -20,18 -39,39 -55,60 -17,23 -33,46 -48,71 -15,25 -28,51 -41,78 -13,27 -25,54 -37,82l128 224c4,6 6,12 5,20 -1,7 -3,13 -7,16l-10 10c-11,10 -22,12 -34,7 -12,-5 -25,-14 -38,-28 -10,-12 -21,-25 -31,-41 -11,-15 -21,-30 -31,-46 -9,-15 -18,-29 -26,-41 -7,-13 -14,-22 -19,-28 -8,-1 -16,-3 -24,-5 -9,-3 -16,-8 -24,-16 -11,-12 -17,-25 -17,-38 0,-13 1,-29 6,-45 0,-2 0,-5 -1,-8 -1,-4 -2,-7 -4,-11 -1,-4 -3,-7 -5,-11 -2,-3 -3,-6 -5,-9l-40 -78c-16,-31 -30,-58 -41,-81 -12,-24 -22,-45 -31,-64 -9,-18 -17,-35 -24,-51 -7,-15 -14,-30 -21,-44 -2,-5 -5,-12 -8,-21 -4,-9 -7,-19 -9,-29 -2,-10 -3,-19 -2,-28 0,-10 3,-17 8,-22 13,-12 23,-19 29,-21 7,-2 12,-2 17,0l12 6c4,-5 10,-12 17,-21 7,-9 13,-19 21,-29 7,-10 13,-20 19,-29 6,-9 10,-15 12,-19 15,-23 28,-43 40,-61 13,-19 25,-35 37,-51 12,-15 23,-29 35,-42 12,-13 25,-26 38,-38 6,-6 12,-11 18,-16 6,-4 12,-7 17,-9 5,-2 10,-2 15,-2 5,1 10,4 14,9 3,2 5,6 7,11 3,5 4,10 5,16 1,7 1,13 0,21 -1,7 -5,15 -9,22 -2,3 -5,7 -9,12 -4,6 -9,13 -14,20 -6,7 -12,15 -18,23 -6,8 -12,16 -18,23 -9,12 -18,26 -29,42 -10,15 -21,31 -32,48 -11,17 -22,35 -33,52 -11,18 -21,35 -29,52 -9,16 -17,31 -23,46 -5,14 -9,26 -10,37z"/>
   <path class="fil3 str2" d="M1844 2605c-7,-4 -16,-7 -26,-8 -11,-1 -22,-2 -33,-2 -11,0 -22,0 -33,1 -10,0 -20,1 -27,0l-149 164c-6,7 -13,10 -22,10 -9,0 -17,-1 -23,-4 -19,-10 -30,-21 -32,-32 -3,-11 -1,-23 5,-36 3,-5 6,-10 10,-15 4,-5 8,-10 13,-15l6 -8c8,-8 17,-19 28,-31 12,-13 24,-26 36,-40 13,-13 26,-27 39,-41 13,-14 25,-27 37,-39 10,-11 27,-28 48,-50 22,-22 46,-47 73,-75 26,-28 54,-57 83,-87 29,-31 57,-60 83,-87 26,-28 49,-52 70,-74 20,-21 35,-37 44,-47 6,-4 13,-5 21,-5 9,1 17,3 27,8 6,4 12,8 18,13 6,5 10,11 14,17 4,6 6,13 7,20 1,7 -1,14 -4,20 -3,5 -7,10 -12,15 -54,50 -108,102 -164,157 -56,54 -110,111 -162,169 6,-1 17,-2 34,-4 17,-2 36,-5 57,-9 22,-4 43,-8 65,-13 22,-4 40,-9 56,-14 11,-3 22,-6 33,-10 11,-4 22,-7 32,-11 10,-3 19,-6 27,-9 8,-3 14,-5 19,-7 10,-4 21,-7 32,-7 10,-1 20,0 28,5 7,4 14,9 19,15 5,5 9,11 11,17 3,7 4,13 4,19 0,6 -1,11 -3,15 -3,6 -8,10 -13,15 -6,5 -12,9 -18,13 -6,4 -13,7 -19,10 -7,2 -12,4 -16,5 -14,3 -29,7 -47,11 -17,3 -35,7 -54,10 -18,4 -37,7 -56,10 -19,4 -37,6 -55,9 16,24 25,50 28,78 4,29 3,58 -2,87 -5,30 -13,59 -25,89 -12,29 -24,57 -38,83 -2,2 -3,6 -6,10 -3,4 -6,8 -9,11 -5,5 -10,10 -15,14 -6,4 -11,7 -17,8 -6,2 -13,2 -20,1 -7,-1 -14,-3 -23,-8 -8,-4 -14,-9 -18,-15 -4,-6 -7,-12 -8,-19 -1,-6 -1,-13 0,-19 1,-7 3,-13 6,-19 10,-17 19,-36 28,-55 9,-19 16,-39 22,-58 7,-19 11,-38 14,-56 3,-19 3,-36 0,-52 -2,-12 -4,-21 -7,-29 -3,-7 -9,-13 -17,-17l-4 -2z"/>
   <path class="fil3 str2" d="M694 2103c-5,-51 -9,-100 -14,-146 -4,-47 -9,-90 -14,-129 -5,-39 -10,-73 -16,-102 -5,-30 -11,-52 -18,-68 -2,-17 -1,-32 5,-46 6,-13 16,-22 28,-28 8,-3 15,-4 22,-3 7,1 14,4 20,8 6,5 11,10 16,16 5,7 9,14 12,21 2,6 4,11 5,16 2,5 3,9 3,14 6,33 10,67 14,103 3,36 6,72 10,110 3,37 6,74 10,111 3,37 7,73 13,108l5 36c3,19 6,36 9,53 4,17 7,29 11,39 2,5 5,9 9,11 3,2 7,2 13,0 13,-6 27,-15 43,-27 16,-12 32,-25 48,-40 17,-14 32,-29 48,-45 15,-16 30,-30 43,-44 6,-7 12,-13 17,-19 5,-5 11,-11 18,-19 8,-7 17,-17 29,-30 12,-12 29,-30 50,-52 4,-3 8,-6 11,-9 2,-3 5,-5 8,-6 5,-2 10,-3 15,-3 4,1 8,2 12,4 3,3 6,6 9,9 3,4 5,8 7,12 3,7 5,14 6,20 2,5 2,10 3,15 -2,7 -4,15 -8,23 -4,7 -9,14 -14,21 -5,7 -10,13 -16,18 -5,5 -9,10 -13,13 -4,4 -10,9 -17,16 -7,7 -15,15 -23,23 -9,8 -17,17 -26,25 -9,9 -17,17 -25,24 -8,8 -15,15 -21,21 -6,6 -10,10 -13,12 -11,11 -24,23 -38,37 -14,14 -29,27 -43,40 -14,13 -28,25 -41,36 -13,10 -25,18 -35,22 -12,5 -22,8 -30,9 -7,1 -15,2 -22,1 -7,-2 -14,-3 -22,-6 -7,-2 -17,-4 -29,-6 -11,-1 -20,-6 -27,-13 -7,-8 -13,-17 -18,-27 -2,-5 -4,-11 -7,-18 -2,-7 -4,-15 -6,-23 -1,-8 -3,-16 -5,-23 -1,-8 -2,-15 -2,-22l-9 -93z"/>
   <path class="fil3 str2" d="M1406 1839c-6,1 -11,1 -16,0 -5,-2 -9,-4 -13,-7 -4,-3 -7,-7 -9,-12 -3,-4 -4,-9 -5,-14 -1,-4 -1,-10 0,-18 1,-8 2,-17 4,-27 2,-10 4,-20 6,-31 3,-11 5,-22 7,-32 3,-10 5,-19 6,-28 1,-8 2,-15 3,-19 0,-6 0,-12 0,-19 1,-8 1,-16 2,-25 1,-8 1,-18 2,-27 0,-10 1,-20 1,-29 -4,1 -8,3 -14,5 -6,2 -12,3 -18,5 -9,3 -18,6 -27,9 -9,3 -18,7 -27,11 -9,4 -18,7 -28,12 -10,4 -20,9 -32,13 -16,7 -32,14 -48,22 -17,7 -34,13 -52,16 -6,1 -12,1 -17,-1 -5,-3 -11,-4 -17,-4 -4,10 -8,21 -11,32 -3,11 -6,23 -8,34 -3,12 -5,24 -6,35 -1,11 -3,22 -3,31 -1,6 -1,13 0,21 0,8 0,16 1,25 1,8 1,17 2,24 0,8 1,15 1,19 0,4 -1,9 -3,14 -2,4 -4,9 -7,13 -4,4 -7,7 -11,10 -4,3 -9,5 -13,6 -8,1 -15,0 -21,-4 -6,-3 -11,-9 -15,-15 -4,-6 -8,-14 -10,-22 -3,-8 -5,-15 -6,-22 -3,-17 -4,-35 -3,-55 1,-19 3,-39 7,-59 3,-21 8,-42 15,-63 6,-21 13,-42 21,-64 6,-19 14,-41 24,-66 10,-25 21,-51 34,-78 12,-27 27,-54 43,-81 15,-26 32,-51 51,-72 18,-22 37,-41 58,-56 21,-15 42,-25 65,-29 23,-4 44,-3 61,2 17,6 32,15 44,28 12,12 21,28 29,47 7,18 13,38 17,60 3,19 5,39 7,59 1,21 1,41 1,61 0,20 0,39 -1,58 -1,18 -2,35 -2,50l-5 61c0,2 -1,5 -1,11 -1,5 -2,12 -3,19 -1,8 -2,16 -4,25 -1,9 -3,18 -4,26 -2,9 -3,17 -5,24 -1,7 -2,13 -4,18l1 0c-1,7 -2,15 -3,23 0,8 -2,16 -5,22 -3,7 -7,13 -13,18 -5,5 -13,8 -23,10zm-75 -536c-12,2 -25,7 -36,15 -12,7 -23,16 -34,27 -10,11 -21,23 -30,36 -9,14 -18,27 -26,41 -8,14 -16,28 -23,41 -7,14 -13,27 -19,38 0,2 -2,5 -3,8 -1,3 -3,6 -4,10 -1,3 -2,7 -3,11 -1,4 -2,7 -3,10l44 -8c16,-3 34,-7 54,-13 20,-6 40,-12 59,-19 19,-7 37,-13 53,-20 16,-6 29,-11 37,-14 0,-4 0,-9 0,-15 0,-7 0,-14 -1,-22 0,-8 -1,-16 -2,-25 -1,-8 -3,-17 -4,-26 -2,-8 -4,-16 -6,-26 -2,-9 -5,-18 -10,-26 -4,-7 -10,-14 -17,-19 -7,-4 -15,-6 -26,-4z"/>
   <path class="fil3 str1" d="M1320 2087c8,9 17,19 25,30 8,10 17,21 26,32 9,10 19,20 30,30 11,10 23,18 37,26 17,9 35,16 54,21 19,5 39,9 59,10 20,0 41,-1 62,-4 20,-3 41,-8 61,-16 22,-8 41,-16 57,-24 15,-7 29,-15 40,-21 11,-7 19,-13 25,-19 7,-6 11,-12 14,-17 4,-7 5,-15 3,-24 -2,-8 -7,-16 -13,-25 -7,-8 -15,-16 -25,-23 -10,-8 -21,-15 -33,-21 -7,-4 -15,-8 -25,-13 -9,-4 -19,-9 -29,-14 -10,-4 -20,-9 -29,-14 -9,-4 -17,-8 -24,-12 -10,-5 -19,-12 -29,-20 -10,-8 -18,-17 -26,-28 -7,-11 -13,-23 -17,-36 -4,-14 -5,-28 -4,-45 0,-5 1,-11 3,-17 2,-7 4,-13 8,-20 4,-7 8,-14 12,-20 5,-6 10,-11 14,-17 13,-12 28,-24 46,-34 19,-11 39,-19 60,-27 22,-7 45,-14 68,-19 24,-5 48,-9 71,-12 24,-3 47,-5 68,-6 22,-1 42,-1 60,-1 25,2 49,5 72,12 23,7 45,16 65,27 12,6 23,14 32,23 9,9 16,19 22,29 5,11 7,22 7,33 0,12 -3,23 -9,35 -4,6 -7,12 -11,15 -4,4 -8,7 -12,8 -4,2 -8,3 -11,2 -4,0 -7,-1 -10,-3 -8,-4 -15,-9 -21,-15 -6,-5 -11,-11 -17,-16 -5,-6 -10,-12 -15,-17 -5,-5 -12,-10 -20,-14 -22,-12 -47,-20 -75,-23 -28,-4 -57,-5 -86,-3 -29,2 -58,6 -87,13 -28,6 -55,13 -79,21 -12,4 -23,10 -31,16 -9,6 -15,13 -19,21 -6,11 -6,23 0,34 7,12 17,21 31,29 8,4 17,9 28,14 10,5 21,11 32,16 11,5 21,10 32,15 10,5 19,10 27,14 19,10 35,23 50,37 14,15 25,31 33,48 8,18 12,36 11,56 0,19 -5,39 -16,59 -6,12 -15,23 -25,33 -10,11 -22,21 -35,30 -13,9 -27,17 -42,25 -15,8 -30,15 -45,22 -28,13 -57,23 -87,31 -30,8 -60,13 -91,14 -30,2 -60,0 -89,-5 -30,-6 -58,-16 -85,-30 -11,-6 -22,-14 -33,-22 -11,-9 -21,-18 -31,-29 -10,-10 -18,-21 -25,-33 -7,-12 -13,-24 -16,-36 -4,-12 -5,-24 -5,-36 0,-12 4,-24 10,-35 3,-5 6,-10 11,-14 4,-4 10,-5 16,-1z"/>
  </g>
 </g>
</svg>
