<?xml version="1.0" encoding="UTF-8"?>
<!DOCTYPE svg PUBLIC "-//W3C//DTD SVG 1.1//EN" "http://www.w3.org/Graphics/SVG/1.1/DTD/svg11.dtd">
<!-- Creator: CorelDRAW X7 -->
<svg xmlns="http://www.w3.org/2000/svg" xml:space="preserve" width="768px" height="1000px" version="1.1" style="shape-rendering:geometricPrecision; text-rendering:geometricPrecision; image-rendering:optimizeQuality; fill-rule:evenodd; clip-rule:evenodd"
viewBox="0 0 768 1000"
 xmlns:xlink="http://www.w3.org/1999/xlink">
 <defs>
  <style type="text/css">
   <![CDATA[
    .str6 {stroke:#2B2A29;stroke-width:2.95276;stroke-opacity:0.490196}
    .str2 {stroke:#2B2A29;stroke-width:8.85829}
    .str3 {stroke:black;stroke-width:8.85829}
    .str4 {stroke:#2B2A29;stroke-width:5.90553}
    .str1 {stroke:black;stroke-width:5.90553}
    .str5 {stroke:#2B2A29;stroke-width:2.36221}
    .str0 {stroke:black;stroke-width:8.85829;stroke-linecap:round}
    .fil0 {fill:none}
    .fil1 {fill:#2B2A29;fill-rule:nonzero}
    .fil2 {fill:#FFBD1C;fill-opacity:0.490196}
   ]]>
  </style>
 </defs>
 <g id="Layer_x0020_1">
  <metadata id="CorelCorpID_0Corel-Layer"/>
  <g id="_562791132880">
   <path class="fil0 str0" d="M575 878l0 -575 -391 -3 0 45 0 534m0 16l0 44 5 19c5,6 10,12 15,18l5 3 11 4 4 2 282 0m61 -21l3 -4 3 -8 2 -9 0 -50"/>
   <g>
    <g>
     <line class="fil0 str1" x1="541" y1="392" x2="541" y2= "943" />
    </g>
    <g>
     <line class="fil0 str1" x1="501" y1="666" x2="541" y2= "666" />
    </g>
    <g>
     <line class="fil0 str1" x1="501" y1="706" x2="541" y2= "706" />
    </g>
    <g>
     <line class="fil0 str1" x1="501" y1="746" x2="541" y2= "746" />
    </g>
    <g>
     <line class="fil0 str1" x1="502" y1="942" x2="542" y2= "942" />
    </g>
    <g>
     <line class="fil0 str1" x1="501" y1="824" x2="541" y2= "824" />
    </g>
    <g>
     <line class="fil0 str1" x1="502" y1="864" x2="542" y2= "864" />
    </g>
    <g>
     <line class="fil0 str1" x1="502" y1="903" x2="542" y2= "903" />
    </g>
    <g>
     <line class="fil0 str1" x1="501" y1="627" x2="541" y2= "627" />
    </g>
    <g>
     <line class="fil0 str1" x1="502" y1="428" x2="542" y2= "428" />
    </g>
    <g>
     <line class="fil0 str1" x1="501" y1="469" x2="541" y2= "469" />
    </g>
    <g>
     <line class="fil0 str1" x1="501" y1="509" x2="541" y2= "509" />
    </g>
    <g>
     <line class="fil0 str1" x1="501" y1="548" x2="541" y2= "548" />
    </g>
    <g>
     <line class="fil0 str1" x1="470" y1="783" x2="541" y2= "783" />
    </g>
    <g>
     <line class="fil0 str1" x1="469" y1="588" x2="541" y2= "588" />
    </g>
    <g>
     <line class="fil0 str1" x1="470" y1="393" x2="541" y2= "393" />
    </g>
   </g>
   <path class="fil0 str2" d="M647 964l-81 0m-60 19l0 2 157 0"/>
   <g>
    <path class="fil0 str3" d="M644 964l0 -84 105 0 0 46m0 18l0 42 -105 0 0 -1"/>
    <circle class="fil0 str3" cx="696" cy="933" r="38"/>
   </g>
   <path class="fil1 str4" d="M746 943l21 0 0 6 -21 0 0 -6zm21 -12l-21 0 0 -5 21 0 0 5z"/>
   <g>
    <g>
     <path class="fil0 str5" d="M643 780l0 -42 106 0 0 42m0 18l0 45 -106 0 0 -45"/>
     <circle class="fil0 str5" cx="696" cy="791" r="39"/>
    </g>
    <path class="fil0 str5" d="M593 893l-18 0m0 -15l18 0"/>
    <path class="fil0 str5" d="M609 486l-16 0 0 392m0 15l16 0 0 -95m0 -18l0 -131m0 -19l0 -126"/>
    <g>
     <path class="fil0 str5" d="M643 630l0 -44 106 0 0 44m0 19l0 42 -106 0 0 -42"/>
     <circle class="fil0 str5" cx="696" cy="638" r="39"/>
    </g>
    <g>
     <path class="fil0 str5" d="M642 486l0 -45 106 0 0 46m0 18l0 42 -106 0 0 -43"/>
     <circle class="fil0 str5" cx="695" cy="494" r="39"/>
    </g>
    <path class="fil0 str5" d="M609 780l34 0m0 18l-34 0"/>
    <path class="fil0 str5" d="M609 630l34 0m0 19l-34 0"/>
    <path class="fil0 str5" d="M608 486l34 0m0 18l-33 0"/>
    <path class="fil1" d="M748 487l19 0 0 0 -19 0 0 0zm19 19l-19 0 0 -1 19 0 0 1z"/>
    <path class="fil1" d="M749 630l18 0 0 0 -18 0 0 0zm18 19l-18 0 0 -1 18 0 0 1z"/>
    <path class="fil1" d="M749 779l18 0 0 1 -18 0 0 -1zm18 20l-18 0 0 -1 18 0 0 1z"/>
   </g>
   <g>
    <g>
     <path class="fil0 str5" d="M112 782l0 -42 -106 0 0 42m0 18l0 45 106 0 0 -45"/>
     <circle class="fil0 str5" cx="59" cy="792" r="39"/>
    </g>
    <path class="fil0 str5" d="M162 895l22 0m0 -16l-22 0"/>
    <path class="fil0 str5" d="M147 488l15 0 0 391m0 16l-15 0 0 -95m0 -18l0 -132m0 -18l0 -126"/>
    <g>
     <path class="fil0 str5" d="M112 632l0 -44 -105 0 0 44m0 18l0 43 105 0 0 -43"/>
     <circle class="fil0 str5" cx="59" cy="640" r="39"/>
    </g>
    <g>
     <path class="fil0 str5" d="M113 488l0 -45 -106 0 0 46m0 18l0 42 106 0 0 -43"/>
     <circle class="fil0 str5" cx="60" cy="496" r="39"/>
    </g>
    <path class="fil0 str5" d="M147 782l-35 0m0 18l35 0"/>
    <path class="fil0 str5" d="M147 632l-35 0m0 18l35 0"/>
    <path class="fil0 str5" d="M147 488l-34 0m0 18l34 0"/>
    <path class="fil1" d="M7 489l-22 0 0 0 22 0 0 0zm-22 18l22 0 0 1 -22 0 0 -1z"/>
    <path class="fil1" d="M7 632l-22 0 0 0 22 0 0 0zm-22 18l22 0 0 1 -22 0 0 -1z"/>
    <path class="fil1" d="M6 782l-21 0 0 -1 21 0 0 1zm-21 18l21 0 0 0 -21 0 0 0z"/>
   </g>
   <polygon class="fil2 str6" points="561,105 639,105 639,143 561,143 "/>
   <g>
    <image x="1" y="49" width="640" height="154" xlink:href="PH_v2_Images\PH_v2_ImgID1.png"/>
   </g>
  </g>
 </g>
</svg>
