<?xml version="1.0" encoding="UTF-8"?>
<!DOCTYPE svg PUBLIC "-//W3C//DTD SVG 1.1//EN" "http://www.w3.org/Graphics/SVG/1.1/DTD/svg11.dtd">
<!-- Creator: CorelDRAW X7 -->
<svg xmlns="http://www.w3.org/2000/svg" xml:space="preserve" width="768px" height="1000px" version="1.1" style="shape-rendering:geometricPrecision; text-rendering:geometricPrecision; image-rendering:optimizeQuality; fill-rule:evenodd; clip-rule:evenodd"
viewBox="0 0 768 1000"
 xmlns:xlink="http://www.w3.org/1999/xlink">
 <defs>
  <style type="text/css">
   <![CDATA[
    .str4 {stroke:#2B2A29;stroke-width:2.36221;stroke-opacity:0.490196}
    .str6 {stroke:#2B2A29;stroke-width:2.36221;stroke-opacity:0.501961}
    .str5 {stroke:#2B2A29;stroke-width:2.36221;stroke-opacity:0.701961}
    .str2 {stroke:#2B2A29;stroke-width:2.36221;stroke-opacity:0.800000}
    .str7 {stroke:#2B2A29;stroke-width:2.36221;stroke-opacity:0.901961}
    .str1 {stroke:black;stroke-width:8.85829}
    .str3 {stroke:black;stroke-width:2.36221}
    .str8 {stroke:#2B2A29;stroke-width:2.36221}
    .str0 {stroke:black;stroke-width:11.8111;stroke-linecap:round}
    .fil0 {fill:none}
    .fil10 {fill:#FFBB1C}
    .fil11 {fill:black;fill-rule:nonzero}
    .fil5 {fill:#D7F7F7;fill-opacity:0.490196}
    .fil7 {fill:#DEBB8E;fill-opacity:0.490196}
    .fil8 {fill:#FFBD1C;fill-opacity:0.501961}
    .fil6 {fill:#007C61;fill-opacity:0.701961}
    .fil1 {fill:#848AFF;fill-opacity:0.800000}
    .fil9 {fill:#4A0303;fill-opacity:0.901961}
    .fil4 {fill:url(#id0)}
    .fil3 {fill:url(#id1)}
    .fil2 {fill:url(#id2)}
   ]]>
  </style>
  <linearGradient id="id0" gradientUnits="userSpaceOnUse" x1="-13.6808" y1="617.946" x2="200.49" y2="617.946">
   <stop offset="0" style="stop-opacity:1; stop-color:black"/>
   <stop offset="0.411765" style="stop-opacity:1; stop-color:#0B0202"/>
   <stop offset="0.541176" style="stop-opacity:1; stop-color:#B1B1B1"/>
   <stop offset="1" style="stop-opacity:1; stop-color:#170404"/>
  </linearGradient>
  <linearGradient id="id1" gradientUnits="userSpaceOnUse" x1="569.462" y1="617.314" x2="778.772" y2="617.314">
   <stop offset="0" style="stop-opacity:1; stop-color:black"/>
   <stop offset="0.811765" style="stop-opacity:1; stop-color:#0B0202"/>
   <stop offset="0.541176" style="stop-opacity:1; stop-color:#B1B1B1"/>
   <stop offset="1" style="stop-opacity:1; stop-color:#170404"/>
  </linearGradient>
  <linearGradient id="id2" gradientUnits="userSpaceOnUse" x1="660.211" y1="850.944" x2="666.026" y2="955.595">
   <stop offset="0" style="stop-opacity:1; stop-color:black"/>
   <stop offset="0.301961" style="stop-opacity:1; stop-color:black"/>
   <stop offset="0.521569" style="stop-opacity:1; stop-color:#858585"/>
   <stop offset="1" style="stop-opacity:1; stop-color:black"/>
  </linearGradient>
 </defs>
 <g id="Layer_x0020_2">
  <metadata id="CorelCorpID_0Corel-Layer"/>
  <path class="fil0 str0" d="M556 948l9 -22 3 -8 1 -9 0 -47 0 -556 -369 -3 0 42 0 504 0 57 5 18c5,5 10,11 14,17l5 2 10 4 4 2 318 -1z"/>
  <g id="_1095068305520">
   <line class="fil0 str1" x1="537" y1="390" x2="537" y2= "909" />
  </g>
  <g id="_1095068302640">
   <line class="fil0 str1" x1="500" y1="648" x2="537" y2= "648" />
  </g>
  <g id="_1095068301520">
   <line class="fil0 str1" x1="500" y1="686" x2="537" y2= "686" />
  </g>
  <g id="_1095068298384">
   <line class="fil0 str1" x1="500" y1="724" x2="537" y2= "724" />
  </g>
  <g id="_1095068292752">
   <line class="fil0 str1" x1="501" y1="905" x2="538" y2= "905" />
  </g>
  <g id="_1095068292592">
   <line class="fil0 str1" x1="500" y1="797" x2="537" y2= "797" />
  </g>
  <g id="_1095068294096">
   <line class="fil0 str1" x1="501" y1="835" x2="538" y2= "835" />
  </g>
  <g id="_1095068293264">
   <line class="fil0 str1" x1="501" y1="872" x2="538" y2= "872" />
  </g>
  <g id="_1095068292080">
   <line class="fil0 str1" x1="500" y1="611" x2="537" y2= "611" />
  </g>
  <g id="_1095068291728">
   <line class="fil0 str1" x1="501" y1="423" x2="538" y2= "423" />
  </g>
  <g id="_1095068290864">
   <line class="fil0 str1" x1="500" y1="462" x2="537" y2= "462" />
  </g>
  <g id="_1095068289936">
   <line class="fil0 str1" x1="500" y1="500" x2="537" y2= "500" />
  </g>
  <g id="_1095068289072">
   <line class="fil0 str1" x1="500" y1="537" x2="537" y2= "537" />
  </g>
  <g id="_1095068349392">
   <line class="fil0 str1" x1="470" y1="758" x2="537" y2= "758" />
  </g>
  <g id="_1095068343760">
   <line class="fil0 str1" x1="469" y1="574" x2="537" y2= "574" />
  </g>
  <g id="_1095068318032">
   <line class="fil0 str1" x1="470" y1="394" x2="537" y2= "394" />
  </g>
  <g id="_1095068318384">
  </g>
  <g id="_1095068317456">
   <g>
   </g>
   <g>
   </g>
   <g>
   </g>
  </g>
  <polygon class="fil1 str2" points="578,176 652,176 652,212 578,212 "/>
  <polygon class="fil2 str3" points="631,853 730,853 730,897 768,897 768,918 730,918 730,953 631,952 631,952 558,952 566,933 631,933 "/>
  <polygon class="fil3 str3" points="641,684 742,684 742,724 778,724 778,741 742,741 742,783 641,783 641,741 609,741 609,817 609,817 609,831 569,830 569,817 594,817 594,741 594,724 594,446 598,446 609,446 641,446 641,404 741,404 741,444 779,444 779,465 741,465 741,504 641,504 641,463 609,463 609,582 641,582 641,541 742,541 742,582 778,582 778,600 742,600 742,640 641,640 641,600 609,600 609,724 641,724 "/>
  <polygon class="fil4 str3" points="124,684 24,684 24,724 -13,724 -13,741 24,741 24,783 124,783 124,741 156,741 156,817 156,817 156,831 200,832 200,817 171,817 171,741 171,724 171,447 167,447 156,447 125,447 125,404 25,404 25,445 -14,445 -14,465 25,465 25,504 125,504 125,464 156,464 156,582 124,582 124,541 24,541 24,582 -13,582 -13,600 24,600 24,640 124,640 124,600 156,600 156,724 124,724 "/>
  <polygon class="fil5 str4" points="328,174 402,174 402,209 328,209 "/>
  <polygon class="fil6 str5" points="49,175 123,175 123,211 49,211 "/>
  <polygon class="fil7 str4" points="577,110 651,110 651,146 577,146 "/>
  <polygon class="fil8 str6" points="328,107 402,107 402,143 328,143 "/>
  <polygon class="fil9 str7" points="49,106 123,106 123,142 49,142 "/>
  <polygon class="fil10 str8" points="241,47 315,47 315,83 241,83 "/>
  <path class="fil11" d="M338 69l2 0c0,1 1,2 1,3 1,1 1,1 2,2 1,0 2,0 4,0 1,0 2,0 3,0 0,-1 1,-1 1,-2 1,0 1,-1 1,-1 0,-1 0,-2 -1,-2 0,-1 -1,-1 -2,-2 0,0 -1,0 -3,-1 -2,0 -4,-1 -5,-1 -1,0 -1,-1 -2,-2 0,-1 -1,-2 -1,-3 0,-1 1,-2 1,-3 1,-1 2,-1 3,-2 1,0 3,-1 4,-1 2,0 3,1 4,1 1,1 2,1 3,2 1,1 1,3 1,4l-3 0c0,-1 0,-2 -1,-3 -1,-1 -2,-1 -4,-1 -2,0 -3,0 -4,1 0,1 -1,1 -1,2 0,1 0,2 1,2 1,1 2,1 4,2 3,0 4,1 5,1 1,1 2,1 3,2 0,1 1,2 1,3 0,1 -1,3 -1,4 -1,1 -2,1 -3,2 -1,0 -3,1 -4,1 -2,0 -4,-1 -5,-1 -1,-1 -2,-2 -3,-3 -1,-1 -1,-2 -1,-4zm19 0c0,-3 1,-5 3,-7 1,-1 3,-2 5,-2 2,0 4,1 5,2 1,2 2,4 2,6 0,2 0,4 -1,5 -1,1 -1,2 -3,3 -1,0 -2,1 -3,1 -3,0 -4,-1 -6,-2 -1,-2 -2,-4 -2,-6zm3 0c0,2 0,3 1,4 1,1 2,2 4,2 1,0 2,-1 3,-2 1,-1 1,-2 1,-5 0,-1 0,-3 -1,-4 -1,-1 -2,-1 -3,-1 -2,0 -3,0 -4,1 -1,1 -1,3 -1,5zm15 7l0 -21 3 0 0 12 6 -6 4 0 -6 6 6 9 -3 0 -5 -8 -2 2 0 6 -3 0zm24 0l0 -21 8 0c2,0 3,0 3,0 1,0 2,0 3,1 1,0 1,1 2,2 0,1 0,2 0,3 0,2 0,3 -1,5 -1,1 -4,2 -7,2l-5 0 0 8 -3 0zm3 -11l5 0c2,0 4,0 4,-1 1,-1 2,-2 2,-3 0,-1 -1,-2 -1,-2 -1,-1 -1,-1 -2,-2 0,0 -1,0 -3,0l-5 0 0 8zm16 4c0,-3 1,-5 2,-7 2,-1 3,-2 5,-2 2,0 4,1 5,2 2,2 2,4 2,6 0,2 0,4 0,5 -1,1 -2,2 -3,3 -1,0 -3,1 -4,1 -2,0 -4,-1 -5,-2 -2,-2 -2,-4 -2,-6zm2 0c0,2 1,3 2,4 1,1 2,2 3,2 1,0 3,-1 3,-2 1,-1 2,-2 2,-5 0,-1 -1,-3 -2,-4 0,-1 -2,-1 -3,-1 -1,0 -2,0 -3,1 -1,1 -2,3 -2,5zm16 7l0 -15 2 0 0 2c0,-1 1,-1 2,-2 1,0 2,-1 3,-1 1,0 2,1 3,1 0,1 1,1 1,2 1,-2 3,-3 5,-3 2,0 3,1 4,2 0,1 1,2 1,4l0 10 -3 0 0 -9c0,-2 0,-2 0,-3 0,0 -1,-1 -1,-1 -1,0 -1,0 -2,0 -1,0 -2,0 -2,1 -1,1 -1,2 -1,3l0 9 -3 0 0 -10c0,-1 0,-2 -1,-2 0,-1 -1,-1 -2,-1 -1,0 -1,0 -2,0 -1,1 -1,1 -1,2 -1,1 -1,2 -1,3l0 8 -2 0zm35 -2c-1,1 -2,2 -3,2 -1,1 -2,1 -3,1 -2,0 -3,-1 -4,-2 -1,0 -1,-1 -1,-3 0,-1 0,-1 0,-2 1,0 1,-1 2,-1 0,-1 1,-1 2,-1 0,0 1,-1 2,-1 2,0 4,0 5,-1 0,0 0,0 0,0 0,-1 -1,-2 -1,-3 -1,0 -2,0 -3,0 -1,0 -2,0 -3,0 0,1 -1,1 -1,3l-3 -1c0,-1 1,-2 1,-2 1,-1 2,-2 3,-2 1,0 2,-1 3,-1 2,0 3,1 4,1 0,0 1,1 1,1 1,1 1,1 1,2 0,0 0,1 0,2l0 4c0,2 0,4 1,4 0,1 0,2 0,2l-3 0c0,0 0,-1 0,-2zm0 -5c-1,0 -3,0 -5,1 -1,0 -1,0 -2,0 0,0 -1,1 -1,1 0,0 0,1 0,1 0,1 0,1 0,2 1,0 2,1 3,1 1,0 2,-1 3,-1 0,0 1,-1 1,-2 1,0 1,-1 1,-3l0 0zm6 7l0 -15 3 0 0 2c0,-1 1,-2 2,-2 0,0 1,-1 1,-1 1,0 2,1 3,1l-1 3c-1,-1 -1,-1 -2,-1 0,0 -1,0 -1,1 -1,0 -1,0 -1,1 -1,1 -1,2 -1,3l0 8 -3 0zm21 -2c-1,1 -2,2 -3,2 -1,1 -2,1 -3,1 -2,0 -3,-1 -4,-2 -1,0 -1,-1 -1,-3 0,-1 0,-1 0,-2 1,0 1,-1 2,-1 0,-1 1,-1 1,-1 1,0 2,-1 3,-1 2,0 4,0 5,-1 0,0 0,0 0,0 0,-1 -1,-2 -1,-3 -1,0 -2,0 -3,0 -1,0 -2,0 -3,0 -1,1 -1,1 -1,3l-3 -1c0,-1 1,-2 1,-2 1,-1 2,-2 3,-2 1,0 2,-1 3,-1 2,0 3,1 3,1 1,0 2,1 2,1 1,1 1,1 1,2 0,0 0,1 0,2l0 4c0,2 0,4 0,4 1,1 1,2 1,2l-3 0c0,0 0,-1 0,-2zm0 -5c-1,0 -3,0 -5,1 -1,0 -2,0 -2,0 -1,0 -1,1 -1,1 0,0 -1,1 -1,1 0,1 1,1 1,2 1,0 2,1 3,1 1,0 2,-1 2,-1 1,0 2,-1 2,-2 0,0 1,-1 1,-3l0 0zm6 7l0 -15 3 0 0 2c1,-2 3,-3 5,-3 1,0 2,1 2,1 1,0 2,1 2,1 0,1 1,1 1,2 0,1 0,2 0,3l0 9 -3 0 0 -9c0,-1 0,-2 0,-3 0,0 0,-1 -1,-1 -1,0 -1,0 -2,0 -1,0 -2,0 -3,1 -1,0 -1,2 -1,4l0 8 -3 0zm5 -17l2 -4 3 0 -3 4 -2 0zm22 12l3 0c0,2 -1,3 -2,4 -1,1 -3,2 -5,2 -2,0 -3,-1 -5,-2 -1,-2 -2,-4 -2,-6 0,-2 1,-4 1,-5 1,-1 2,-2 3,-3 1,0 2,-1 3,-1 2,0 4,1 5,2 1,1 1,2 2,3l-3 1c0,-1 -1,-2 -1,-3 -1,0 -2,0 -2,0 -2,0 -3,0 -4,1 -1,1 -1,2 -1,5 0,2 0,3 1,4 1,1 2,2 3,2 1,0 2,-1 3,-1 1,-1 1,-2 1,-3zm4 5l0 -2 10 -11c-1,0 -2,0 -3,0l-7 0 0 -2 13 0 0 1 -8 10 -2 2c1,0 2,0 3,0l8 0 0 2 -14 0zm15 -7c0,-3 1,-5 3,-7 1,-1 3,-2 5,-2 2,0 4,1 5,2 1,2 2,4 2,6 0,2 0,4 -1,5 0,1 -1,2 -3,3 -1,0 -2,1 -3,1 -3,0 -4,-1 -6,-2 -1,-2 -2,-4 -2,-6zm3 0c0,2 0,3 1,4 1,1 2,2 4,2 1,0 2,-1 3,-2 1,-1 1,-2 1,-5 0,-1 0,-3 -1,-4 -1,-1 -2,-1 -3,-1 -2,0 -3,0 -4,1 -1,1 -1,3 -1,5zm18 7l-5 -15 3 0 2 9 1 3c0,0 1,-1 1,-3l3 -9 2 0 3 9 1 3 0 -3 3 -9 3 0 -5 15 -3 0 -2 -9 -1 -3 -3 12 -3 0zm19 6l0 -2c0,0 1,0 1,0 1,0 1,0 1,0 1,0 1,-1 1,-1 0,0 1,-1 1,-2 0,0 0,0 0,-1l-6 -15 3 0 4 9c0,1 0,2 1,3 0,-1 0,-2 1,-3l3 -9 3 0 -6 16c-1,1 -1,3 -2,3 0,1 -1,2 -1,2 -1,1 -2,1 -2,1 -1,0 -2,0 -2,-1z"/>
  <path class="fil11" d="M158 129l3 1c0,2 -2,4 -3,5 -2,1 -4,2 -6,2 -2,0 -4,0 -5,-1 -2,-1 -3,-3 -4,-5 -1,-1 -1,-3 -1,-5 0,-3 1,-5 1,-6 1,-2 2,-3 4,-4 2,-1 3,-1 5,-1 2,0 4,0 6,1 1,1 2,3 3,5l-3 1c-1,-2 -1,-3 -2,-4 -1,-1 -2,-1 -4,-1 -1,0 -3,0 -4,1 -1,1 -2,2 -2,3 -1,2 -1,3 -1,5 0,1 0,3 1,4 0,2 1,3 2,4 1,0 3,1 4,1 2,0 3,-1 4,-2 1,-1 2,-2 2,-4zm5 0c0,-3 1,-5 3,-7 1,-1 3,-1 5,-1 2,0 4,0 5,2 1,1 2,3 2,6 0,2 0,3 -1,4 0,1 -1,2 -3,3 -1,1 -2,1 -3,1 -2,0 -4,-1 -6,-2 -1,-2 -2,-4 -2,-6zm3 0c0,2 1,3 1,4 1,1 2,2 4,2 1,0 2,-1 3,-2 1,-1 1,-2 1,-4 0,-2 0,-4 -1,-5 -1,-1 -2,-1 -3,-1 -2,0 -3,0 -4,1 0,1 -1,3 -1,5zm15 8l0 -22 3 0 0 22 -3 0zm17 -2c-1,0 -2,1 -3,1 -1,1 -2,1 -3,1 -1,0 -3,0 -4,-1 -1,-1 -1,-2 -1,-4 0,0 0,-1 0,-2 1,0 1,-1 2,-1 0,-1 1,-1 2,-1 0,0 1,0 2,0 2,-1 4,-1 5,-1 0,-1 0,-1 0,-1 0,-1 0,-2 -1,-2 -1,-1 -2,-1 -3,-1 -1,0 -2,0 -3,0 0,1 -1,2 -1,3l-3 -1c1,-1 1,-2 2,-2 0,-1 1,-1 2,-2 1,0 2,0 3,0 2,0 3,0 4,0 1,0 1,1 2,1 0,1 0,1 0,2 1,1 1,1 1,3l0 3c0,3 0,4 0,5 0,0 0,1 0,2l-2 0c-1,-1 -1,-2 -1,-2zm0 -6c-1,0 -3,0 -4,1 -2,0 -2,0 -3,0 0,0 -1,1 -1,1 0,1 0,1 0,1 0,1 0,2 1,2 0,1 1,1 2,1 1,0 2,0 3,-1 0,0 1,-1 1,-2 1,0 1,-1 1,-2l0 -1z"/>
  <path class="fil11" d="M421 135l0 -21 8 0c2,0 3,0 3,0 2,0 2,0 3,1 1,0 1,1 2,2 0,1 1,2 1,3 0,2 -1,3 -2,4 -1,2 -3,2 -7,2l-5 0 0 9 -3 0zm3 -11l5 0c2,0 4,-1 4,-1 1,-1 2,-2 2,-3 0,-1 -1,-2 -1,-2 -1,-1 -1,-1 -2,-2 0,0 -1,0 -3,0l-5 0 0 8zm17 -7l0 -3 2 0 0 3 -2 0zm0 18l0 -15 2 0 0 15 -2 0zm9 0l-4 -15 2 0 3 9 1 3c0,0 0,-1 1,-3l2 -9 3 0 2 9 1 3 1 -3 3 -9 2 0 -5 15 -3 0 -2 -9 -1 -3 -3 12 -3 0zm18 -8c0,-3 1,-5 3,-6 1,-1 3,-2 5,-2 2,0 4,1 5,2 1,2 2,4 2,6 0,2 0,4 -1,5 0,1 -1,2 -3,3 -1,0 -2,1 -3,1 -2,0 -4,-1 -6,-3 -1,-1 -2,-3 -2,-6zm3 0c0,2 1,4 1,5 1,1 2,1 4,1 1,0 2,0 3,-1 1,-1 1,-3 1,-5 0,-2 0,-3 -1,-4 -1,-1 -2,-2 -3,-2 -2,0 -3,1 -4,2 0,1 -1,2 -1,4z"/>
  <path class="fil11" d="M667 131l3 -1c0,1 0,2 1,3 0,1 1,1 2,2 1,0 2,0 3,0 1,0 2,0 3,0 1,0 2,-1 2,-1 0,-1 1,-2 1,-2 0,-1 -1,-2 -1,-2 0,-1 -1,-1 -2,-1 0,-1 -2,-1 -4,-1 -2,-1 -3,-1 -4,-2 -1,0 -2,-1 -2,-2 -1,-1 -1,-1 -1,-2 0,-2 0,-3 1,-4 1,0 1,-1 3,-2 1,0 2,0 4,0 1,0 3,0 4,0 1,1 2,2 3,3 0,1 1,2 1,3l-3 0c0,-1 -1,-2 -2,-3 0,-1 -2,-1 -3,-1 -2,0 -3,0 -4,1 -1,1 -1,1 -1,2 0,1 0,2 1,2 0,1 2,1 4,2 2,0 4,1 5,1 1,1 2,2 2,2 1,1 1,2 1,3 0,2 0,3 -1,4 0,1 -1,2 -2,2 -2,1 -3,1 -5,1 -2,0 -3,0 -5,-1 -1,0 -2,-1 -3,-2 0,-2 -1,-3 -1,-4zm20 -1c0,-3 1,-5 2,-7 2,-1 3,-1 5,-1 2,0 4,0 6,2 1,1 2,3 2,6 0,2 -1,3 -1,4 -1,1 -2,2 -3,3 -1,1 -2,1 -4,1 -2,0 -4,-1 -5,-2 -1,-2 -2,-4 -2,-6zm3 0c0,2 0,3 1,4 1,1 2,2 3,2 2,0 3,-1 4,-2 0,-1 1,-2 1,-4 0,-2 -1,-4 -1,-5 -1,-1 -2,-1 -4,-1 -1,0 -2,0 -3,1 -1,1 -1,3 -1,5zm25 6c-1,0 -2,1 -3,1 -1,1 -2,1 -3,1 -2,0 -3,-1 -4,-1 -1,-1 -1,-2 -1,-4 0,0 0,-1 0,-2 1,0 1,-1 2,-1 0,-1 1,-1 2,-1 0,0 1,0 2,0 2,-1 4,-1 5,-1 0,-1 0,-1 0,-1 0,-1 0,-2 -1,-2 -1,-1 -2,-1 -3,-1 -1,0 -2,0 -3,0 0,1 -1,2 -1,3l-3 -1c1,-1 1,-2 1,-2 1,-1 2,-2 3,-2 1,0 2,0 3,0 2,0 3,0 4,0 0,0 1,1 1,1 1,1 1,1 1,2 0,0 0,1 0,2l0 4c0,2 1,4 1,5 0,0 0,1 0,2l-3 0c0,-1 0,-2 0,-2zm0 -6c-1,0 -3,0 -5,1 -1,0 -1,0 -2,0 0,0 -1,1 -1,1 0,0 0,1 0,1 0,1 0,2 0,2 1,1 2,1 3,1 1,0 2,0 3,-1 0,0 1,-1 1,-2 1,0 1,-1 1,-2l0 -1zm7 14l0 -22 2 0 0 2c1,-1 1,-1 2,-2 1,0 1,0 2,0 2,0 3,0 4,1 1,0 2,1 2,2 1,2 1,3 1,5 0,1 0,3 -1,4 0,1 -1,2 -2,3 -1,1 -2,1 -4,1 -1,0 -1,0 -2,-1 -1,0 -1,0 -2,-1l0 8 -2 0zm2 -14c0,2 0,3 1,4 1,1 2,2 3,2 1,0 2,-1 3,-2 1,-1 1,-2 1,-4 0,-2 0,-4 -1,-5 -1,-1 -2,-1 -3,-1 -1,0 -2,0 -3,1 -1,1 -1,3 -1,5z"/>
  <path class="fil11" d="M140 203l-5 -21 3 0 3 14c0,1 1,3 1,4 0,-2 1,-4 1,-4l4 -14 3 0 3 10c1,3 2,6 2,8 0,-1 1,-3 1,-5l4 -13 2 0 -5 21 -3 0 -5 -16c0,-2 0,-3 0,-3 -1,1 -1,2 -1,3l-5 16 -3 0zm23 -8c0,-3 1,-5 3,-6 1,-1 3,-2 5,-2 2,0 3,1 5,2 1,2 2,4 2,6 0,2 0,4 -1,5 -1,1 -1,2 -3,3 -1,0 -2,0 -3,0 -3,0 -4,0 -6,-2 -1,-1 -2,-3 -2,-6zm3 0c0,2 0,4 1,5 1,1 2,1 4,1 1,0 2,0 3,-1 1,-1 1,-3 1,-5 0,-2 0,-3 -1,-4 -1,-1 -2,-2 -3,-2 -2,0 -3,1 -4,2 -1,1 -1,2 -1,4zm25 8l0 -2c-1,2 -2,2 -4,2 -1,0 -3,0 -4,-1 -1,0 -2,-1 -2,-2 -1,-2 -1,-3 -1,-5 0,-1 0,-3 1,-4 0,-1 1,-2 2,-3 1,-1 2,-1 4,-1 1,0 1,0 2,1 1,0 1,1 2,1l0 -7 3 0 0 21 -3 0zm-8 -8c0,2 0,4 1,5 1,1 2,1 3,1 1,0 2,0 3,-1 1,-1 1,-3 1,-4 0,-3 0,-4 -1,-5 -1,-1 -2,-2 -3,-2 -1,0 -2,1 -3,2 -1,1 -1,2 -1,4zm25 6c-1,1 -2,2 -3,2 -1,0 -2,0 -3,0 -1,0 -3,0 -4,-1 -1,-1 -1,-2 -1,-3 0,-1 0,-1 0,-2 1,-1 1,-1 2,-2 0,0 1,0 2,0 0,-1 1,-1 2,-1 2,0 4,0 5,-1 0,0 0,0 0,0 0,-2 0,-2 -1,-3 -1,0 -2,-1 -3,-1 -1,0 -2,1 -3,1 0,0 -1,1 -1,2l-3 0c1,-1 1,-2 2,-3 0,0 1,-1 2,-1 1,-1 2,-1 3,-1 2,0 3,0 4,1 1,0 1,0 2,1 0,0 0,1 0,2 0,0 1,1 1,2l0 4c0,2 0,4 0,4 0,1 0,2 0,2l-2 0c-1,0 -1,-1 -1,-2zm0 -6c-1,1 -3,1 -5,1 -1,0 -1,1 -2,1 0,0 -1,0 -1,1 0,0 0,0 0,1 0,1 0,1 1,2 0,0 1,0 2,0 1,0 2,0 3,0 0,-1 1,-1 1,-2 1,-1 1,-2 1,-3l0 -1zm15 8l0 -16 2 0 0 3c1,-1 2,-2 2,-2 1,-1 2,-1 3,-1 1,0 2,0 3,1 1,0 1,1 2,2 1,-2 2,-3 4,-3 2,0 3,1 4,1 1,1 1,3 1,4l0 11 -2 0 0 -10c0,-1 0,-2 -1,-2 0,0 0,-1 -1,-1 0,0 -1,-1 -1,-1 -1,0 -2,1 -3,2 -1,0 -1,1 -1,3l0 9 -3 0 0 -10c0,-1 0,-2 0,-3 -1,0 -1,-1 -2,-1 -1,0 -2,1 -3,1 0,0 -1,1 -1,2 0,0 0,2 0,3l0 8 -3 0zm24 -8c0,-3 1,-5 3,-6 1,-1 3,-2 4,-2 3,0 4,1 6,2 1,2 2,4 2,6 0,2 0,4 -1,5 -1,1 -2,2 -3,3 -1,0 -2,0 -4,0 -2,0 -3,0 -5,-2 -1,-1 -2,-3 -2,-6zm3 0c0,2 0,4 1,5 1,1 2,1 3,1 2,0 3,0 4,-1 1,-1 1,-3 1,-5 0,-2 0,-3 -1,-4 -1,-1 -2,-2 -4,-2 -1,0 -2,1 -3,2 -1,1 -1,2 -1,4zm15 8l0 -16 2 0 0 3c1,-1 1,-2 2,-2 1,-1 1,-1 2,-1 1,0 2,0 2,1l-1 2c0,0 -1,0 -1,0 -1,0 -2,0 -2,0 0,1 -1,1 -1,2 0,1 0,2 0,3l0 8 -3 0zm9 -5l3 0c0,1 0,2 1,2 0,1 1,1 3,1 1,0 2,0 2,0 1,-1 1,-2 1,-2 0,-1 0,-1 -1,-2 0,0 -1,0 -2,-1 -2,0 -4,0 -4,-1 -1,0 -2,-1 -2,-1 0,-1 -1,-2 -1,-2 0,-1 1,-2 1,-2 0,-1 1,-1 1,-2 1,0 1,0 2,-1 1,0 1,0 2,0 1,0 2,0 3,1 1,0 2,1 2,1 1,1 1,2 1,3l-2 0c0,-1 -1,-2 -1,-2 -1,0 -2,-1 -3,-1 -1,0 -2,1 -2,1 -1,0 -1,1 -1,1 0,1 0,1 0,1 0,1 1,1 1,1 1,0 1,0 3,1 2,0 3,1 4,1 0,0 1,1 1,1 1,1 1,2 1,3 0,0 0,1 -1,2 0,1 -1,1 -2,2 -1,0 -2,0 -3,0 -2,0 -4,0 -5,-1 -1,-1 -2,-2 -2,-4zm16 5l0 -21 3 0 0 12 6 -7 3 0 -6 6 7 10 -3 0 -5 -8 -2 2 0 6 -3 0zm25 -2c-1,1 -2,2 -2,2 -1,0 -2,0 -3,0 -2,0 -3,0 -4,-1 -1,-1 -2,-2 -2,-3 0,-1 0,-1 1,-2 0,-1 1,-1 1,-2 1,0 1,0 2,0 1,-1 1,-1 2,-1 3,0 4,0 5,-1 0,0 0,0 0,0 0,-2 0,-2 -1,-3 0,0 -1,-1 -3,-1 -1,0 -2,1 -2,1 -1,0 -1,1 -2,2l-2 0c0,-1 0,-2 1,-3 0,0 1,-1 2,-1 1,-1 2,-1 4,-1 1,0 2,0 3,1 1,0 2,0 2,1 0,0 1,1 1,2 0,0 0,1 0,2l0 4c0,2 0,4 0,4 0,1 0,2 1,2l-3 0c0,0 0,-1 -1,-2zm0 -6c-1,1 -2,1 -4,1 -1,0 -2,1 -2,1 -1,0 -1,0 -2,1 0,0 0,0 0,1 0,1 0,1 1,2 0,0 1,0 2,0 1,0 2,0 3,0 1,-1 1,-1 2,-2 0,-1 0,-2 0,-3l0 -1z"/>
  <path class="fil11" d="M419 203l-6 -22 3 0 3 15c0,1 1,3 1,4 1,-2 1,-4 1,-4l4 -15 3 0 4 11c0,3 1,6 1,8 1,-1 1,-3 1,-5l4 -14 3 0 -6 22 -3 0 -5 -16c0,-2 0,-3 0,-3 -1,1 -1,2 -1,3l-5 16 -2 0zm24 6l-1 -2c1,0 1,0 2,0 0,0 1,0 1,0 1,-1 1,-1 1,-1 0,-1 1,-1 1,-2 0,0 0,-1 0,-1l-6 -16 3 0 3 9c1,2 1,3 1,4 1,-1 1,-2 2,-3l3 -10 3 0 -6 16c-1,2 -2,3 -2,4 0,1 -1,1 -2,2 0,0 -1,0 -2,0 0,0 -1,0 -1,0zm17 -6l-2 0 0 -22 2 0 0 8c2,-1 3,-2 5,-2 1,0 2,0 2,1 1,0 2,1 3,1 0,1 1,2 1,3 0,1 0,2 0,3 0,3 0,5 -2,6 -1,2 -3,2 -4,2 -2,0 -4,0 -5,-2l0 2zm0 -8c0,2 0,3 1,4 1,2 2,2 3,2 2,0 3,0 3,-1 1,-1 2,-3 2,-5 0,-2 -1,-3 -2,-4 0,-1 -1,-2 -3,-2 -1,0 -2,1 -3,2 0,1 -1,2 -1,4zm15 -11l0 -3 2 0 0 3 -2 0zm0 19l0 -16 2 0 0 16 -2 0zm17 -5l3 0c-1,2 -2,3 -3,4 -1,1 -2,1 -4,1 -2,0 -4,0 -6,-2 -1,-1 -2,-3 -2,-6 0,-2 1,-4 2,-6 2,-1 4,-2 6,-2 2,0 3,1 5,2 1,2 2,4 2,6 0,0 0,1 0,1l-12 0c0,2 1,3 2,4 0,1 2,1 3,1 1,0 2,0 2,-1 1,0 2,-1 2,-2zm-9 -4l9 0c0,-2 0,-3 -1,-3 -1,-1 -2,-2 -3,-2 -2,0 -3,1 -3,1 -1,1 -2,2 -2,4zm15 9l0 -22 3 0 0 22 -3 0zm17 -2c-1,1 -2,2 -3,2 -1,0 -2,0 -3,0 -1,0 -3,0 -4,-1 -1,-1 -1,-2 -1,-3 0,-1 0,-2 0,-2 1,-1 1,-1 2,-2 0,0 1,0 2,-1 0,0 1,0 2,0 2,0 4,-1 5,-1 0,0 0,0 0,-1 0,-1 0,-1 -1,-2 -1,0 -2,-1 -3,-1 -1,0 -2,0 -3,1 0,0 -1,1 -1,2l-3 0c1,-1 1,-2 1,-3 1,-1 2,-1 3,-1 1,-1 2,-1 3,-1 2,0 3,0 4,1 1,0 1,0 2,1 0,0 0,1 0,2 0,0 0,1 0,2l0 3c0,3 1,4 1,5 0,1 0,1 0,2l-2 0c-1,-1 -1,-1 -1,-2zm0 -6c-1,1 -3,1 -5,1 -1,0 -1,1 -2,1 0,0 -1,0 -1,1 0,0 0,0 0,1 0,1 0,1 1,2 0,0 1,0 2,0 1,0 2,0 3,0 0,-1 1,-1 1,-2 1,-1 1,-2 1,-3l0 -1zm17 2l2 1c0,1 -1,3 -2,4 -1,1 -2,1 -4,1 -2,0 -4,0 -5,-2 -2,-1 -2,-3 -2,-6 0,-1 0,-3 1,-4 0,-1 1,-2 2,-3 1,-1 3,-1 4,-1 2,0 3,0 4,1 1,1 2,2 2,4l-2 0c-1,-1 -1,-1 -2,-2 0,-1 -1,-1 -2,-1 -1,0 -2,1 -3,2 -1,1 -1,2 -1,4 0,2 0,4 1,5 1,1 2,1 3,1 1,0 2,0 2,-1 1,0 2,-1 2,-3zm3 6l0 -2 10 -12c-1,0 -2,1 -3,1l-6 0 0 -3 13 0 0 2 -9 10 -1 2c1,0 2,0 3,0l7 0 0 2 -14 0z"/>
  <path class="fil11" d="M672 203l-6 -21 3 0 3 14c1,1 1,3 1,4 1,-2 1,-4 1,-4l4 -14 4 0 3 10c1,3 1,6 1,8 1,-1 1,-3 2,-5l3 -13 3 0 -6 21 -3 0 -4 -16c-1,-2 -1,-3 -1,-3 0,1 -1,2 -1,3l-4 16 -3 0zm23 -8c0,-3 0,-5 2,-6 1,-1 3,-2 5,-2 2,0 4,1 5,2 2,2 2,4 2,6 0,2 0,4 -1,5 0,1 -1,2 -2,3 -1,0 -3,0 -4,0 -2,0 -4,0 -5,-2 -2,-1 -2,-3 -2,-6zm2 0c0,2 1,4 2,5 1,1 2,1 3,1 1,0 2,0 3,-1 1,-1 2,-3 2,-5 0,-2 -1,-3 -2,-4 -1,-1 -2,-2 -3,-2 -1,0 -2,1 -3,2 -1,1 -2,2 -2,4zm26 8l0 -2c-1,2 -3,2 -5,2 -1,0 -2,0 -3,-1 -1,0 -2,-1 -3,-2 0,-2 -1,-3 -1,-5 0,-1 1,-3 1,-4 1,-1 1,-2 3,-3 1,-1 2,-1 3,-1 1,0 2,0 3,1 0,0 1,1 1,1l0 -7 3 0 0 21 -2 0zm-9 -8c0,2 1,4 1,5 1,1 2,1 3,1 2,0 3,0 3,-1 1,-1 2,-2 2,-4 0,-3 -1,-4 -2,-5 0,-1 -2,-2 -3,-2 -1,0 -2,1 -3,2 0,1 -1,2 -1,4zm25 6c-1,1 -2,2 -2,2 -1,0 -2,0 -3,0 -2,0 -3,0 -4,-1 -1,-1 -2,-2 -2,-3 0,-1 0,-1 1,-2 0,-1 1,-1 1,-2 1,0 1,0 2,0 1,-1 1,-1 2,-1 3,0 4,0 5,-1 0,0 0,0 0,0 0,-2 0,-2 -1,-3 0,0 -1,-1 -3,-1 -1,0 -2,1 -2,1 -1,0 -1,1 -2,2l-2 0c0,-1 0,-2 1,-3 0,0 1,-1 2,-1 1,-1 2,-1 4,-1 1,0 2,0 3,1 1,0 2,0 2,1 0,0 1,1 1,2 0,0 0,1 0,2l0 4c0,2 0,4 0,4 0,1 0,2 1,2l-3 0c0,0 0,-1 -1,-2zm0 -6c-1,1 -2,1 -4,1 -1,0 -2,1 -2,1 -1,0 -1,0 -1,1 -1,0 -1,0 -1,1 0,1 0,1 1,2 0,0 1,0 2,0 1,0 2,0 3,0 1,-1 1,-1 2,-2 0,-1 0,-2 0,-3l0 -1z"/>
 </g>
</svg>
