<?xml version="1.0" encoding="UTF-8"?>
<!DOCTYPE svg PUBLIC "-//W3C//DTD SVG 1.1//EN" "http://www.w3.org/Graphics/SVG/1.1/DTD/svg11.dtd">
<!-- Creator: CorelDRAW X7 -->
<svg xmlns="http://www.w3.org/2000/svg" xml:space="preserve" width="768px" height="1000px" version="1.1" style="shape-rendering:geometricPrecision; text-rendering:geometricPrecision; image-rendering:optimizeQuality; fill-rule:evenodd; clip-rule:evenodd"
viewBox="0 0 768 1000"
 xmlns:xlink="http://www.w3.org/1999/xlink">
 <defs>
  <style type="text/css">
   <![CDATA[
    .str4 {stroke:#2B2A29;stroke-width:2.95276;stroke-opacity:0.490196}
    .str2 {stroke:#2B2A29;stroke-width:8.85829}
    .str3 {stroke:black;stroke-width:8.85829}
    .str1 {stroke:black;stroke-width:5.90553}
    .str0 {stroke:black;stroke-width:8.85829;stroke-linecap:round}
    .fil0 {fill:none}
    .fil2 {fill:#FFBD1C;fill-opacity:0.490196}
    .fil1 {fill:url(#id0)}
   ]]>
  </style>
  <linearGradient id="id0" gradientUnits="userSpaceOnUse" x1="685.821" y1="984.064" x2="685.821" y2="878.752">
   <stop offset="0" style="stop-opacity:1; stop-color:#2B2A29"/>
   <stop offset="0.631373" style="stop-opacity:1; stop-color:#252325"/>
   <stop offset="0.501961" style="stop-opacity:1; stop-color:#8F9292"/>
   <stop offset="1" style="stop-opacity:1; stop-color:#1F1B20"/>
  </linearGradient>
 </defs>
 <g id="Layer_x0020_1">
  <metadata id="CorelCorpID_0Corel-Layer"/>
  <path class="fil0 str0" d="M578 964l0 -1 -3 -20 0 -50 0 -590 -391 -3 0 45 0 534 0 60 5 19c5,6 10,12 15,18l5 3 11 4 4 2 282 0"/>
  <g id="_562846676368">
   <g>
    <line class="fil0 str1" x1="541" y1="392" x2="541" y2= "943" />
   </g>
   <g>
    <line class="fil0 str1" x1="501" y1="666" x2="541" y2= "666" />
   </g>
   <g>
    <line class="fil0 str1" x1="501" y1="706" x2="541" y2= "706" />
   </g>
   <g>
    <line class="fil0 str1" x1="501" y1="746" x2="541" y2= "746" />
   </g>
   <g>
    <line class="fil0 str1" x1="502" y1="942" x2="542" y2= "942" />
   </g>
   <g>
    <line class="fil0 str1" x1="501" y1="824" x2="541" y2= "824" />
   </g>
   <g>
    <line class="fil0 str1" x1="502" y1="864" x2="542" y2= "864" />
   </g>
   <g>
    <line class="fil0 str1" x1="502" y1="903" x2="542" y2= "903" />
   </g>
   <g>
    <line class="fil0 str1" x1="501" y1="627" x2="541" y2= "627" />
   </g>
   <g>
    <line class="fil0 str1" x1="502" y1="428" x2="542" y2= "428" />
   </g>
   <g>
    <line class="fil0 str1" x1="501" y1="469" x2="541" y2= "469" />
   </g>
   <g>
    <line class="fil0 str1" x1="501" y1="509" x2="541" y2= "509" />
   </g>
   <g>
    <line class="fil0 str1" x1="501" y1="548" x2="541" y2= "548" />
   </g>
   <g>
    <line class="fil0 str1" x1="470" y1="783" x2="541" y2= "783" />
   </g>
   <g>
    <line class="fil0 str1" x1="469" y1="588" x2="541" y2= "588" />
   </g>
   <g>
    <line class="fil0 str1" x1="470" y1="393" x2="541" y2= "393" />
   </g>
  </g>
  <path class="fil0 str2" d="M647 964l-69 0m-72 19l0 2 157 0"/>
  <polygon class="fil1 str3" points="761,948 761,984 655,984 655,984 655,984 578,984 578,963 655,963 655,879 761,879 761,924 779,924 779,925 794,925 794,948 "/>
  <polygon class="fil2 str4" points="571,105 649,105 649,143 571,143 "/>
  <g id="_0">
   <image x="11" y="49" width="640" height="154" xlink:href="PH_v3_Images\PH_v3_ImgID1.png"/>
  </g>
 </g>
</svg>
