<?xml version="1.0" encoding="UTF-8"?>
<!DOCTYPE svg PUBLIC "-//W3C//DTD SVG 1.1//EN" "http://www.w3.org/Graphics/SVG/1.1/DTD/svg11.dtd">
<!-- Creator: CorelDRAW X7 -->
<svg xmlns="http://www.w3.org/2000/svg" xml:space="preserve" width="2480px" height="3508px" version="1.1" style="shape-rendering:geometricPrecision; text-rendering:geometricPrecision; image-rendering:optimizeQuality; fill-rule:evenodd; clip-rule:evenodd"
viewBox="0 0 2480 3507"
 xmlns:xlink="http://www.w3.org/1999/xlink">
 <defs>
  <style type="text/css">
   <![CDATA[
    .str1 {stroke:black;stroke-width:36.9048}
    .str0 {stroke:black;stroke-width:7.38095}
    .fil2 {fill:none}
    .fil1 {fill:black;fill-rule:nonzero}
    .fil0 {fill:url(#id0)}
   ]]>
  </style>
  <linearGradient id="id0" gradientUnits="userSpaceOnUse" x1="33.9028" y1="1699.03" x2="2433.6" y2="1699.03">
   <stop offset="0" style="stop-opacity:1; stop-color:#C4006B"/>
   <stop offset="0.0705882" style="stop-opacity:1; stop-color:#C3003F"/>
   <stop offset="0.14902" style="stop-opacity:1; stop-color:#C30D21"/>
   <stop offset="0.278431" style="stop-opacity:1; stop-color:#D0691C"/>
   <stop offset="0.4" style="stop-opacity:1; stop-color:#EDBD16"/>
   <stop offset="0.490196" style="stop-opacity:1; stop-color:#FFEC01"/>
   <stop offset="0.54902" style="stop-opacity:1; stop-color:#B4C832"/>
   <stop offset="0.6" style="stop-opacity:1; stop-color:#70AA41"/>
   <stop offset="0.670588" style="stop-opacity:1; stop-color:#269450"/>
   <stop offset="0.721569" style="stop-opacity:1; stop-color:#009886"/>
   <stop offset="0.768627" style="stop-opacity:1; stop-color:#079780"/>
   <stop offset="0.819608" style="stop-opacity:1; stop-color:#009AB9"/>
   <stop offset="0.870588" style="stop-opacity:1; stop-color:#0090D6"/>
   <stop offset="0.929412" style="stop-opacity:1; stop-color:#006FB6"/>
   <stop offset="1" style="stop-opacity:1; stop-color:#2F3485"/>
  </linearGradient>
 </defs>
 <g id="Layer_x0020_1">
  <metadata id="CorelCorpID_0Corel-Layer"/>
  <polygon class="fil0 str0" points="34,1863 2434,1863 2434,1535 34,1535 "/>
  <path class="fil1" d="M127 1924c0,7 0,13 -1,18 -1,5 -2,10 -4,13 -2,3 -4,6 -6,7 -3,2 -5,3 -8,3 -2,0 -5,-1 -7,-3 -3,-1 -5,-4 -6,-7 -2,-3 -3,-8 -4,-13 -1,-5 -2,-11 -2,-18 0,-7 1,-13 2,-18 1,-5 2,-10 4,-13 1,-3 3,-6 6,-7 2,-2 5,-3 7,-3 3,0 5,1 8,3 2,1 4,4 6,7 2,3 3,8 4,13 1,5 1,11 1,18zm-6 0c0,-6 -1,-11 -1,-15 -1,-4 -2,-8 -3,-10 -1,-3 -3,-5 -4,-6 -2,-1 -3,-1 -5,-1 -1,0 -3,0 -4,1 -2,1 -3,3 -4,6 -1,2 -2,6 -3,10 -1,4 -1,9 -1,15 0,6 0,11 1,15 1,5 2,8 3,10 1,3 2,5 4,6 1,1 3,2 4,2 2,0 3,-1 5,-2 1,-1 3,-3 4,-6 1,-2 2,-5 3,-10 0,-4 1,-9 1,-15z"/>
  <line class="fil2 str1" x1="999" y1="1863" x2="999" y2= "1932" />
  <line class="fil2 str1" x1="837" y1="1863" x2="837" y2= "1932" />
  <line class="fil2 str1" x1="674" y1="1863" x2="674" y2= "1929" />
  <line class="fil2 str1" x1="512" y1="1863" x2="512" y2= "1932" />
  <line class="fil2 str1" x1="349" y1="1863" x2="349" y2= "1929" />
  <line class="fil2 str1" x1="190" y1="1863" x2="190" y2= "1929" />
  <line class="fil2 str1" x1="1484" y1="1863" x2="1484" y2= "1929" />
  <line class="fil2 str1" x1="1321" y1="1863" x2="1321" y2= "1929" />
  <line class="fil2 str1" x1="1162" y1="1863" x2="1162" y2= "1932" />
  <line class="fil2 str1" x1="2146" y1="1863" x2="2146" y2= "1929" />
  <line class="fil2 str1" x1="1968" y1="1863" x2="1968" y2= "1929" />
  <line class="fil2 str1" x1="1809" y1="1863" x2="1809" y2= "1929" />
  <line class="fil2 str1" x1="1646" y1="1863" x2="1646" y2= "1929" />
  <path class="fil1" d="M276 1964l-6 0 0 -62c-2,2 -4,4 -7,6 -2,3 -4,4 -6,5l0 -9c3,-3 6,-6 9,-9 3,-4 5,-8 6,-11l4 0 0 80z"/>
  <path class="fil1" d="M450 1955l0 9 -35 0c0,-2 1,-4 1,-7 1,-3 2,-7 4,-10 2,-4 5,-8 9,-12 6,-7 9,-13 11,-17 2,-4 3,-8 3,-12 0,-4 0,-7 -2,-10 -2,-3 -5,-4 -7,-4 -4,0 -6,2 -8,4 -2,3 -3,7 -3,12l-6 -1c0,-7 2,-13 5,-17 3,-4 7,-6 12,-6 5,0 9,2 12,6 3,5 4,10 4,16 0,3 0,7 -1,10 -1,3 -3,6 -5,9 -2,4 -5,8 -9,14 -4,5 -7,9 -8,10 -1,2 -2,4 -3,6l26 0z"/>
  <path class="fil1" d="M576 1941l7 -1c1,5 2,9 4,12 1,2 4,4 6,4 3,0 6,-2 8,-5 2,-3 3,-7 3,-12 0,-5 -1,-8 -3,-11 -2,-3 -4,-5 -7,-5 -2,0 -3,1 -5,1l1 -8c0,0 1,0 1,0 3,0 5,-1 7,-3 3,-2 4,-6 4,-10 0,-4 -1,-7 -3,-9 -1,-3 -3,-4 -6,-4 -2,0 -5,1 -6,4 -2,2 -3,6 -3,11l-7 -2c1,-7 3,-12 5,-15 3,-4 7,-6 11,-6 3,0 5,1 8,3 2,2 4,4 5,8 2,3 2,6 2,10 0,3 0,6 -2,9 -1,3 -3,5 -5,7 3,1 6,3 7,7 2,3 3,8 3,13 0,7 -2,13 -5,17 -4,5 -8,8 -13,8 -4,0 -8,-2 -11,-7 -3,-4 -5,-9 -6,-16z"/>
  <path class="fil1" d="M754 1963l0 -19 -23 0 0 -9 24 -52 5 0 0 52 7 0 0 9 -7 0 0 19 -6 0zm0 -28l0 -36 -17 36 17 0z"/>
  <path class="fil1" d="M900 1941l7 -1c1,5 2,9 4,11 1,3 4,4 6,4 3,0 6,-2 8,-5 2,-4 3,-8 3,-14 0,-6 -1,-10 -3,-14 -2,-3 -4,-4 -8,-4 -2,0 -4,0 -5,2 -2,1 -3,3 -4,5l-6 -1 5 -41 26 0 0 9 -21 0 -3 22c3,-3 6,-5 10,-5 5,0 8,2 12,7 3,5 4,11 4,19 0,7 -1,13 -4,19 -3,6 -8,9 -14,9 -4,0 -8,-2 -11,-6 -3,-4 -5,-9 -6,-16z"/>
  <path class="fil1" d="M1096 1903l-6 1c-1,-4 -1,-7 -2,-9 -2,-2 -4,-4 -7,-4 -2,0 -4,1 -5,3 -2,2 -4,5 -5,10 -1,4 -2,10 -2,18 2,-3 3,-6 6,-8 2,-2 4,-2 7,-2 4,0 8,2 11,7 3,5 4,11 4,19 0,5 0,9 -2,13 -1,5 -3,8 -6,10 -2,3 -5,4 -8,4 -6,0 -10,-3 -13,-9 -4,-6 -5,-16 -5,-30 0,-15 1,-27 5,-34 3,-6 8,-9 13,-9 5,0 8,2 11,6 2,3 4,8 4,14zm-26 35c0,3 0,6 1,9 1,3 3,6 4,7 2,2 4,3 6,3 2,0 5,-2 7,-5 2,-4 3,-8 3,-14 0,-5 -1,-10 -3,-13 -2,-3 -5,-5 -8,-5 -2,0 -5,2 -7,5 -2,3 -3,7 -3,13z"/>
  <path class="fil1" d="M1224 1891l0 -9 34 0 0 7c-3,6 -6,13 -10,22 -3,9 -5,18 -7,28 -1,6 -2,14 -3,22l-6 0c0,-7 1,-14 2,-23 2,-9 4,-18 7,-26 3,-8 6,-15 9,-21l-26 0z"/>
  <path class="fil1" d="M1395 1920c-3,-1 -5,-3 -6,-6 -1,-3 -2,-6 -2,-10 0,-6 1,-11 4,-15 3,-4 7,-6 11,-6 5,0 8,2 11,6 3,4 4,9 4,15 0,4 0,7 -1,10 -2,3 -4,5 -6,6 3,2 5,4 7,8 2,3 3,8 3,13 0,6 -2,12 -5,17 -3,4 -8,7 -13,7 -5,0 -9,-3 -12,-7 -3,-5 -5,-11 -5,-18 0,-5 1,-9 3,-13 1,-3 4,-6 7,-7zm-1 -16c0,3 1,6 2,9 2,2 4,3 6,3 3,0 5,-1 6,-3 2,-3 3,-5 3,-9 0,-4 -1,-7 -3,-9 -1,-2 -3,-4 -6,-4 -2,0 -4,1 -6,4 -1,2 -2,5 -2,9zm-2 36c0,3 0,6 1,9 1,2 2,4 4,6 1,1 3,2 5,2 3,0 6,-2 8,-5 2,-3 3,-7 3,-11 0,-5 -1,-9 -3,-12 -2,-3 -5,-5 -8,-5 -3,0 -5,2 -7,5 -2,3 -3,7 -3,11z"/>
  <path class="fil1" d="M1549 1944l7 -1c0,5 1,8 3,10 1,2 3,3 5,3 2,0 4,-1 5,-2 2,-2 3,-4 4,-6 1,-2 2,-5 3,-9 0,-4 0,-8 0,-12 0,-1 0,-1 0,-2 -1,3 -3,5 -5,7 -2,2 -4,3 -7,3 -4,0 -8,-2 -11,-7 -3,-5 -5,-11 -5,-19 0,-8 2,-14 5,-19 3,-5 7,-8 12,-8 3,0 6,2 9,4 3,3 5,7 7,12 1,6 2,13 2,23 0,10 -1,18 -2,24 -2,6 -4,11 -7,14 -3,3 -6,5 -10,5 -4,0 -7,-2 -10,-5 -3,-4 -4,-9 -5,-15zm27 -35c0,-6 -1,-10 -3,-14 -2,-3 -5,-5 -7,-5 -3,0 -6,2 -8,6 -2,3 -3,8 -3,13 0,6 1,10 3,13 2,3 5,5 7,5 3,0 6,-2 8,-5 2,-3 3,-8 3,-13z"/>
  <path class="fil1" d="M1714 1962l-6 0 0 -62c-2,2 -4,4 -6,7 -3,2 -5,4 -7,5l0 -10c4,-2 7,-5 10,-9 2,-4 4,-7 5,-11l4 0 0 80zm17 -39c0,-9 1,-17 2,-23 1,-6 3,-10 6,-13 2,-3 5,-5 9,-5 3,0 5,1 8,3 2,2 3,4 5,7 1,3 2,7 3,12 1,5 1,11 1,19 0,9 0,17 -2,23 -1,6 -3,10 -5,13 -3,3 -6,5 -10,5 -5,0 -9,-3 -12,-8 -3,-7 -5,-18 -5,-33zm7 0c0,13 1,22 3,26 2,5 4,7 7,7 3,0 6,-2 8,-7 2,-4 3,-13 3,-26 0,-13 -1,-22 -3,-26 -2,-4 -5,-7 -8,-7 -3,0 -5,2 -7,6 -2,5 -3,14 -3,27z"/>
  <path class="fil1" d="M1878 1962l-7 0 0 -62c-1,2 -3,4 -6,6 -3,3 -5,4 -7,6l0 -10c4,-2 7,-6 10,-9 2,-4 4,-8 5,-11l5 0 0 80zm35 0l-6 0 0 -62c-2,2 -4,4 -7,6 -2,3 -4,4 -6,6l0 -10c3,-2 6,-6 9,-9 3,-4 5,-8 6,-11l4 0 0 80z"/>
  <path class="fil1" d="M2039 1963l-7 0 0 -62c-1,2 -3,4 -6,6 -2,3 -5,4 -7,5l0 -9c4,-3 7,-6 10,-9 3,-4 5,-8 6,-11l4 0 0 80zm50 -9l0 9 -34 0c-1,-2 0,-4 0,-7 1,-3 3,-7 5,-10 2,-4 4,-8 8,-12 6,-7 10,-13 12,-17 2,-4 3,-8 3,-12 0,-4 -1,-7 -3,-10 -2,-3 -4,-4 -7,-4 -3,0 -6,1 -8,4 -2,3 -3,7 -3,12l-6 -1c0,-8 2,-13 5,-17 3,-4 7,-6 12,-6 5,0 9,2 12,6 3,5 4,10 4,16 0,3 0,6 -1,10 -1,3 -2,6 -4,9 -2,4 -6,8 -10,14 -4,5 -7,9 -8,10 -1,2 -2,4 -2,6l25 0z"/>
  <path class="fil1" d="M2220 1965l-6 0 0 -63c-2,3 -4,5 -6,7 -3,2 -5,4 -7,5l0 -9c3,-3 7,-6 9,-10 3,-3 5,-7 6,-10l4 0 0 80zm17 -21l6 -2c1,6 2,10 4,12 2,3 4,4 7,4 3,0 5,-2 7,-5 2,-3 3,-7 3,-12 0,-4 -1,-8 -2,-11 -2,-3 -5,-4 -8,-4 -1,0 -3,0 -4,1l0 -9c1,0 1,0 1,0 3,0 6,-1 8,-3 2,-2 3,-5 3,-10 0,-3 -1,-6 -2,-9 -2,-2 -4,-3 -7,-3 -2,0 -4,1 -6,3 -1,3 -3,6 -3,11l-6 -2c0,-6 2,-11 5,-15 3,-4 6,-5 10,-5 3,0 6,1 8,2 3,2 5,5 6,8 1,3 2,7 2,10 0,4 -1,7 -2,10 -1,3 -3,5 -6,7 4,1 6,3 8,6 1,4 2,8 2,13 0,7 -1,13 -5,18 -3,5 -7,7 -12,7 -5,0 -9,-2 -12,-6 -3,-4 -5,-10 -5,-16z"/>
  <line class="fil2 str1" x1="2318" y1="1866" x2="2318" y2= "1932" />
  <path class="fil1" d="M2366 1964l-7 0 0 -62c-2,2 -4,4 -7,6 -2,3 -5,4 -7,5l0 -9c4,-3 7,-6 10,-9 3,-4 5,-8 6,-11l5 0 0 80zm39 0l0 -19 -24 0 0 -9 25 -52 6 0 0 52 8 0 0 9 -8 0 0 19 -7 0zm0 -28l0 -36 -17 36 17 0z"/>
 </g>
</svg>
