<?xml version="1.0" encoding="UTF-8"?>
<!DOCTYPE svg PUBLIC "-//W3C//DTD SVG 1.1//EN" "http://www.w3.org/Graphics/SVG/1.1/DTD/svg11.dtd">
<!-- Creator: CorelDRAW X7 -->
<svg xmlns="http://www.w3.org/2000/svg" xml:space="preserve" width="296.686mm" height="209.903mm" version="1.1" style="shape-rendering:geometricPrecision; text-rendering:geometricPrecision; image-rendering:optimizeQuality; fill-rule:evenodd; clip-rule:evenodd"
viewBox="0 0 29669 20990"
 xmlns:xlink="http://www.w3.org/1999/xlink">
 <defs>
  <style type="text/css">
   <![CDATA[
    .str1 {stroke:black;stroke-width:150;stroke-linecap:round}
    .str0 {stroke:black;stroke-width:50}
    .fil0 {fill:none}
   ]]>
  </style>
 </defs>
 <g id="Layer_x0020_1">
  <metadata id="CorelCorpID_0Corel-Layer"/>
  <g id="_951821230752">
   <g>
    <line class="fil0 str0" x1="18773" y1="4366" x2="18773" y2= "18373" />
   </g>
   <g>
    <line class="fil0 str0" x1="17349" y1="9336" x2="18849" y2= "9336" />
   </g>
   <g>
    <line class="fil0 str0" x1="17335" y1="11327" x2="18835" y2= "11327" />
   </g>
   <g>
    <line class="fil0 str0" x1="17336" y1="12343" x2="18836" y2= "12343" />
   </g>
   <g>
    <line class="fil0 str0" x1="17342" y1="13350" x2="18842" y2= "13350" />
   </g>
   <g>
    <line class="fil0 str0" x1="17359" y1="14334" x2="18859" y2= "14334" />
   </g>
   <g>
    <line class="fil0 str0" x1="17327" y1="15343" x2="18826" y2= "15343" />
   </g>
   <g>
    <line class="fil0 str0" x1="17364" y1="16359" x2="18864" y2= "16359" />
   </g>
   <g>
    <line class="fil0 str0" x1="17350" y1="17348" x2="18850" y2= "17348" />
   </g>
   <g>
    <line class="fil0 str0" x1="17345" y1="10342" x2="18845" y2= "10342" />
   </g>
   <g>
    <line class="fil0 str0" x1="14820" y1="18347" x2="18853" y2= "18347" />
   </g>
   <g>
    <line class="fil0 str0" x1="17351" y1="5280" x2="18851" y2= "5280" />
   </g>
   <g>
    <line class="fil0 str0" x1="17327" y1="6335" x2="18827" y2= "6335" />
   </g>
   <g>
    <line class="fil0 str0" x1="17341" y1="7343" x2="18841" y2= "7343" />
   </g>
   <g>
    <line class="fil0 str0" x1="17340" y1="8334" x2="18840" y2= "8334" />
   </g>
   <g>
    <line class="fil0 str0" x1="14845" y1="4366" x2="18877" y2= "4366" />
   </g>
   <polyline class="fil0 str1" points="4178,2090 4178,2139 4115,2139 4115,2139 4115,2139 4178,2188 4240,2237 4674,2432 5109,2676 5357,2823 5543,2920 5605,3018 5668,3115 5730,3164 5730,3213 5730,3262 5730,18247 5792,18443 5854,18589 5916,18736 6102,18882 6288,19028 6475,19175 6661,19272 6909,19321 7095,19370 7220,19419 18581,19419 18954,19419 19202,19370 19512,19272 19761,19126 20009,18980 20195,18784 20319,18589 20382,18345 20382,18247 20382,2090 20382,2090 3995,2036 4170,2086 "/>
  </g>
 </g>
</svg>
